<svg data-v-2e3a203a="" viewBox="0 0 1606 418" version="1.1" xmlns="http://www.w3.org/2000/svg" xmlns:xlink="http://www.w3.org/1999/xlink" preserveAspectRatio="xMinYMax"><style data-v-2e3a203a="">@media (-webkit-min-device-pixel-ratio: 1.19), (min-resolution: 1.19dppx), (-ms-high-contrast: active), (-ms-high-contrast: none) { #PPA_vapp_web_XS_26x32px { display: none } } @media (-webkit-max-device-pixel-ratio: 1.19), (max-resolution: 1.19dppx) { #PPA_vapp_web_S_76x96px { display: none } }</style><g data-v-2e3a203a="" id="Canvas" transform="translate(-1800 -2800)"><clipPath data-v-2e3a203a="" id="clip-0" clip-rule="evenodd"><path data-v-2e3a203a="" d="M 1800 2800L 3406 2800L 3406 3218L 1800 3218L 1800 2800Z" fill="#FFF"></path></clipPath><g data-v-2e3a203a="" id="logo-responsive" clip-path="url(#clip-0)"><g data-v-2e3a203a="" id="PPA_vapp_web_S_76x96px"><use data-v-2e3a203a="" xlink:href="#path0_fill" transform="translate(1892 2892)" fill="#FFF"></use><use data-v-2e3a203a="" xlink:href="#path1_fill" transform="translate(1892 2892)" fill="#FFF"></use><use data-v-2e3a203a="" xlink:href="#path2_fill" transform="translate(1892 2892)" fill="#FFF"></use><g data-v-2e3a203a="" id="S lõvi"><use data-v-2e3a203a="" xlink:href="#path3_fill" transform="translate(1916.46 2961.33)" fill="#FFF"></use></g><g data-v-2e3a203a="" id="S lõvi"><use data-v-2e3a203a="" xlink:href="#path3_fill" transform="translate(1916.46 2943.82)" fill="#FFF"></use></g><g data-v-2e3a203a="" id="S lõvi"><use data-v-2e3a203a="" xlink:href="#path3_fill" transform="translate(1916.46 2925.32)" fill="#FFF"></use></g></g><g data-v-2e3a203a="" id="PPA_vapp_web_XS_26x32px"><use data-v-2e3a203a="" xlink:href="#path4_fill" transform="translate(1892 2892)" fill="#FFF"></use><use data-v-2e3a203a="" xlink:href="#path5_fill" transform="translate(1892 2892)" fill="#FFF"></use><g data-v-2e3a203a="" id="XS lõvi"><use data-v-2e3a203a="" xlink:href="#path6_fill" transform="translate(1919.3 2960.02)" fill="#FFF"></use></g><g data-v-2e3a203a="" id="XS lõvi"><use data-v-2e3a203a="" xlink:href="#path6_fill" transform="translate(1919.3 2942.54)" fill="#FFF"></use></g><g data-v-2e3a203a="" id="XS lõvi"><use data-v-2e3a203a="" xlink:href="#path6_fill" transform="translate(1919.3 2925.06)" fill="#FFF"></use></g></g><g data-v-2e3a203a="" id="Est"><use data-v-2e3a203a="" xlink:href="#path8_fill" transform="translate(2141 2964.35)" fill="#FFF"></use><use data-v-2e3a203a="" xlink:href="#path9_fill" transform="translate(2141 2964.35)" fill="#FFF"></use><use data-v-2e3a203a="" xlink:href="#path10_fill" transform="translate(2141 2964.35)" fill="#FFF"></use><use data-v-2e3a203a="" xlink:href="#path11_fill" transform="translate(2141 2964.35)" fill="#FFF"></use><use data-v-2e3a203a="" xlink:href="#path12_fill" transform="translate(2141 2964.35)" fill="#FFF"></use><use data-v-2e3a203a="" xlink:href="#path13_fill" transform="translate(2141 2964.35)" fill="#FFF"></use><use data-v-2e3a203a="" xlink:href="#path14_fill" transform="translate(2141 2964.35)" fill="#FFF"></use><use data-v-2e3a203a="" xlink:href="#path15_fill" transform="translate(2141 2964.35)" fill="#FFF"></use><use data-v-2e3a203a="" xlink:href="#path16_fill" transform="translate(2141 2964.35)" fill="#FFF"></use><use data-v-2e3a203a="" xlink:href="#path17_fill" transform="translate(2141 2964.35)" fill="#FFF"></use><use data-v-2e3a203a="" xlink:href="#path18_fill" transform="translate(2141 2964.35)" fill="#FFF"></use><use data-v-2e3a203a="" xlink:href="#path19_fill" transform="translate(2141 2964.35)" fill="#FFF"></use><use data-v-2e3a203a="" xlink:href="#path20_fill" transform="translate(2141 2964.35)" fill="#FFF"></use><use data-v-2e3a203a="" xlink:href="#path21_fill" transform="translate(2141 2964.35)" fill="#FFF"></use><use data-v-2e3a203a="" xlink:href="#path22_fill" transform="translate(2141 2964.35)" fill="#FFF"></use><use data-v-2e3a203a="" xlink:href="#path23_fill" transform="translate(2141 2964.35)" fill="#FFF"></use><use data-v-2e3a203a="" xlink:href="#path24_fill" transform="translate(2141 2964.35)" fill="#FFF"></use><use data-v-2e3a203a="" xlink:href="#path25_fill" transform="translate(2141 2964.35)" fill="#FFF"></use><use data-v-2e3a203a="" xlink:href="#path26_fill" transform="translate(2141 2964.35)" fill="#FFF"></use><use data-v-2e3a203a="" xlink:href="#path27_fill" transform="translate(2141 2964.35)" fill="#FFF"></use><use data-v-2e3a203a="" xlink:href="#path28_fill" transform="translate(2141 2964.35)" fill="#FFF"></use><use data-v-2e3a203a="" xlink:href="#path29_fill" transform="translate(2141 2964.35)" fill="#FFF"></use><use data-v-2e3a203a="" xlink:href="#path30_fill" transform="translate(2141 2964.35)" fill="#FFF"></use><use data-v-2e3a203a="" xlink:href="#path31_fill" transform="translate(2141 2964.35)" fill="#FFF"></use><use data-v-2e3a203a="" xlink:href="#path32_fill" transform="translate(2141 2964.35)" fill="#FFF"></use></g></g></g><defs data-v-2e3a203a=""><path data-v-2e3a203a="" id="path0_fill" d="M117.48 30.13c-1.48-1.8-1.32-4.7.26-6.5 1.5 1.43 3.07 2.03 4.47 2.56 1.5.5 2.8 1 3.7 2.4-1.5 1-2.6.6-3.6.2-1.2-.5-2.5-.9-4.8 1.2z"></path><path data-v-2e3a203a="" id="path1_fill" d="M132.5 26.25c-1 .15-1.05 1-1.1 1.68-.03.54-.06.97-.58.8-1.47-.52-.53-4.42 1.46-4.18 2.67.33 4.7 2.65 3.97 3.3-.5.43-.96 0-1.54-.54-.5-.5-1.2-1.2-2.2-1z"></path><path data-v-2e3a203a="" id="path2_fill" fill-rule="evenodd" d="M187.86 81.24S195.64 196.9 94 237.47C-7.65 196.9.13 81.24.13 81.24V20.78C53.6-1.95 94 .04 94 .04s40.38-1.98 93.86 20.74v60.46zm-45.8-47.14l-.38-.73v-.02l-.2-.36c-.74 1.1-2.56 3.3-5.45 3.8L135 37l.66-.82c1-1.23 3.38-6 2.83-9.45-.2-1.2-.8-2.1-1.7-2.68-3-1.87-4.9-2.73-6.2-2.73-.9 0-1.8.37-2 3.03l-.3 2.03-.8-.07c0-.8-.3-2.5-2.1-4.9-2-2.5-6.5-4.4-9.1-4.4-.7 0-1.6.2-1.8.9-.6 2.5-.3 3.6-.2 3.6l.3 1.1-.9-.6c-.2-.1-4.9-2.9-16.9-2.9h-.4c.3 1.1 1.9 2.7 3 3.8.6.6 1 1.1 1.3 1.4l.3.3-.3.3c-.5.4-1.2.6-2.1.6-.5 0-1 0-1.3-.1-.2.8-.5 2.4.3 4 1 2.1 1.3 2.6 1.3 2.7l.1.2c.1-1.2.4-2.7 1.2-3 .7-.1 2.2-.3 3.7-.3 1.3 0 3.7.1 5.5.8 1.9.7 2.9 1.5 3.4 2.5.6 1.4 0 2.9-1 5.2-.6 1.4-.4 2.6-.2 3.7.2 1.3.5 2.6-.8 3.9-.6.7-1.3 1-2.1 1-.6 0-1.3-.2-2-.4s-1.5-.5-2.4-.6l-.6-.1c-3.1-.4-6.2-.7-7.1-3.4-1.9 1.1-2.4 2.5-2.8 3.8l-.7 2.5c.3.2 1.1.4 2.8.4.6 0 1.3 0 2-.1.5 0 .9.3 1.5.7.8.7 2 1.5 4.1 1.8.9.1 1.8.1 2.8.1 5.1 0 10.6-1.5 16.4-4.4l1.4-.7-.8 1.3c-5.3 8-14.1 8.6-22.6 9.2-4 .3-8.2.6-12 1.7-.1 0-12 2-14.1 12.9-1 5.4-2.6 9.2-3.2 10.5.2 0 .5.1.9.1 2.9 0 8.8-1 14.9-7.9l2.5-3 .2-.2c5.4-6.3 8.2-9.5 18.2-10.3l2.5-.2-2.4.9c-9.9 4.1-13.7 8.3-19.5 18.2l-1 2.2-.1.2c-1.3 2.4-2.4 4.6-4.6 6.3 1.2.5 3.4 1.2 6 1.2 2.8 0 5.3-.8 7.5-2.5 2.4-1.8 4.2-4.4 6-6.9V79c2.9-4.1 5.9-8.4 11.2-9.1l1.2-.1-.8.9c-.1.1-8.6 8.7-8 16.5.3 2.8 1.6 5.2 4.1 7.1l.1-.1V94c.7-2.4 2.2-8 8.2-14.2l1.2-1.2-.5 1.6c-2 6-1.6 11.4 1.1 16.1 1.3 2.2 2.9 3.7 3.8 4.5-.4-2.1-.9-7 2-12.8 3.1-6.4 3.1-15.2-.2-23.5l-.2-.7.7.2c2.9.6 4.1 4.2 5.1 7.4.7 1.9 1.3 3.8 2.2 4.8 0-4.6 1.1-6.9 2.1-9 .6-1.2 1.1-2.2 1.3-3.57.8-4.5.2-8.37-2-12.9L135 50l.8.2c3.2.7 4.2 3.14 5.1 5.5.4.9.7 1.7 1.1 2.4l-.1-.6c-.3-2.36-.6-4.6 1.1-9.4 0-.07 2.2-6.9-.6-13.64zm-78.8 13.75c-.78 6.2.6 12.96 2.27 17.05 1.65 4.1 2.86 5.58 4.92 7.43-.13 1.78-.55 2.98-1 4.25-.1.34-.23.68-.34 1.04-2.3 4.86-4.9 7.87-9.6 10.1-1.7.66-3.6 1.06-5.4 1.47-4 .8-8.1 1.7-11.8 5.3-.5-.5-.9-1-1.4-1.5-4.1-4.4-6-6.4-10.2-6.3-1.7 0-3.8 1.7-3.8 1.7S19.7 87.1 15 76.6c-.06-.52-.4-1.54-.74-2.57-.36-1.06-.72-2.13-.78-2.66 3.78-3 8.1-8.9 6.5-23.06-.28-3.8-1.38-6.9-2.8-8.8-1.4-1.7-3.2-2.1-4.74-1.4.6-2.2 2.25-2.8 3.86-3.4.53-.2 1.1-.4 1.6-.6 1.3-1.2 2.05-2.4 3.07-4.4 2.94.6 5.75.3 8.58-.9 3.82-1.4 8.7-2.8 12.8.6 1.28-1 2.9-1.8 4.45-2.1 2.6-.2 5.28.7 7.97 1.6l1.93.7c2.57.6 5 .8 6.77.4.02.6 1 1.7 2.34 3.2 1.5 1.6 3.3 3.7 4.9 6.1-2.1-1.1-4.5-.4-6 2.9-.5 1.8-1 3.7-1.4 5.9zm32.36 74.9c0-.5 0-1.05-.08-1.64l1.08.7c3.82 2.3 6.84 4.2 5 9.6-1.16-1.9-2.67-3.7-4.52-5-1.47-1-1.48-2.2-1.48-3.6zm-17.98-63.9c-.5-.38-1-.74-1.5-1.1-3.14-2.32-6.3-4.62-9.2-7.24-.06 6.1 1.35 13.7 4.74 18.1.57-2.1 2-6.5 5.96-9.7zm9.04 82.1v-.02l-.87-.74c-5.1-4.4-7.3 3.1-3.3 3.6.6.1 1.3 0 2-.2-.1 1.3-.6 2.3-1 3.4-.3.9-.7 1.7-.9 2.7-.5 2.3.4 3.6 1.3 5.2.5.7.9 1.5 1.2 2.4.7 1.6-.6 2.6-2.3 3.8-1.5 1.1-3.3 2.4-4.3 4.5-.8 1.6-3.1 1.6-4.9 1.6H73c1.12-1.1 1.72-2.3 2.3-3.5.84-1.8 1.65-3.4 4.1-4.2-3.97-.4-5.3-.1-7.6 3.6-1.9 3-3.77 4.2-7.46 3.8 1.16-1.1 1.76-2.3 2.34-3.5.87-1.8 1.67-3.4 4.1-4.2l-.4-.1c-2.53-.3-4.45-.4-6.2 2.1l-.15.2c-2.3 3.3-3.83 5.5-8.4 5.3 1.28-1.1 1.9-2.4 2.5-3.6.87-1.8 1.67-3.4 4.14-4.2h-.36c-2.5-.3-4.4-.4-6.2 2.1l-.5.8c-1.7 2.5-3.9 5.7-7.5 4.7 3.7-2.1-.6-7.5-3.5-4.1.1.2.1.4.2.6.4 4-2.5 3.7-5.5 3.3-2-.3-4.1-.5-5.2.6-.2-1.1.3-2.3 1.2-2.9l.3-.2c-1.6-4.9 4.6-7.3 8.4-6.8-4.3-2.8-8.2-2.4-11.7 1.4-.8-.5-1.5-1.5-1.9-2.4-1.3-.6-2.7-.8-4.1-.2.6-1.5 2.1-2.6 3.7-2.4.2-.4.5-.7.7-1.1 3-4.1 8.8-2.7 12.1 0-2.5-4.1-5.8-6.7-10.7-4.5v-.1l.1-.1c-.5-1.1-1.5-1.8-2.7-1.5.6-1.4 2.2-1.7 3.5-1.2 2.8-3.9 7.8-.5 12 2.5 1.8 1.2 3.4 2.4 4.7 2.8 4.4 1.5 14.1 3.8 14.1-2.8.8.7 1.7 1.2 2.6 1.7 1.7 1 3.2 1.9 3.8 4.2.6-4 .5-5.5-2.8-8-3-2.2-3.9-4-3.6-7.8.7.7 1.5 1.2 2.3 1.8 1.9 1.4 3.7 2.7 4.4 5.2.8-4.7 0-6.7-3.8-9.6-2.5-1.8-3.1-4.4-2.7-7.4.9 1.1 2 1.9 3 2.6 1.7 1.2 3.4 2.4 4 4.9.8-4.4.1-6.1-3-9.1-1.9-2-.8-5.2 1.5-6.3 4.1-2 8.5-.8 12.9.4 3.9 1 7.7 2.1 11.3 1l.1 1.4c.3 2.1.5 4.1 2.4 5.4 1.8 1.2 2.9 2.8 4 4.5l1.1 1.5L95 145c-3.7-.07-6.3-2.34-8.36-4.12zm38.1-3.88c-.74-6.66-6.04-8-6.04-8l.78.97c4.32 6.64 4.2 17 1.28 23.97 2.77 2 5.08 4.6 7.17 7.3.84 1.1 1.6 2.6 2.4 4.2 1.28 2.5 2.62 5.1 4.4 6.3.63.5 1.35.7 2.08 1 1.16.5 2.32.9 3.08 2 .82 1.2.4 2.4-.05 3.7-.32.9-.65 1.9-.47 2.8l.3 1.1c.6 2.8 1.2 5.4-.8 7.9-.1.2-.5.4-.8.7-.4.3-.7.6-.9.8-.1-1.2-.4-2.2-.6-3-.5-2.1-.8-3.5.6-6.5l-.7.5c-2 1.5-3.7 2.7-4 5.5-.1 1.7.3 2.8.8 3.8.6 1.4 1.1 2.6-.5 4.8-.2.2-.6.5-1 .9-.4.3-.8.6-1 .8-.2-1.3-.5-2.3-.7-3.2-.6-2.2-1-3.7.3-6.6-2.2 1.7-4 3.3-4.3 6.3-.2 1.7.3 2.9.7 3.9.6 1.5 1.1 2.7-.7 5h.1l-.9.7-.9.7c-.2-1.1-.5-2.1-.7-2.9-.6-2.2-1-3.7.3-6.6-1.7 1.3-3.1 2.6-3.9 4.7-.8 1.9-.2 3.3.3 4.6.6 1.4 1.1 2.8 0 4.9-.2.1-.4.3-.5.4-.2.3-.4.5-1 .8 1.1-4.7-6.3-5.7-6.4-.9v.3c2.4 2.5 0 5.5-2.8 5.9-.8 1.3-2.1 2.4-3.6 2.8.4-.9.6-1.8.7-2.8-4.1.1-4.7-7.2.3-8.5-4.8-.2-8 2.9-7.6 7.6-.8-.1-1.7-.4-2.4-.8-2 .1-4.1 1-5.6 2.4-.3-1.8 1.1-3.4 2.8-3.9-.8-5.7 4.6-7.2 8.6-8.3l.4-.1c-6.3-.6-9.3-.3-11.9 4.6.3-.5-5.7-1.3-5.7.4-.1-3.7 3.3-4.1 3.3-4.1 3.3-8.4 9.6-6.5 13.1-3.9 0 0 18.2-11.9 22.6-18.7 1.7-2.7 1-5.7-2.7-4.7-3.5.9-5.4.8-8.2-2 1.4-.2 2.5-.7 3.5-1 2-.7 3.6-1.3 6.2-.3-1.7-2.1-3-3.1-5.8-3.5-1.2-.2-2.3.1-3.4.4-1.7.4-3.4.9-5-.3l-2-2c1.3-.2 2.4-.6 3.4-1 2-.7 3.6-1.3 6.1-.2-2-2.4-3.9-4.5-7.5-3.8-.6.1-1.1.2-1.6.3-1.2.2-2.3.5-3.3.3-1.3-.3-2.6-1.4-3.9-2.9 1.2-.2 2.3-.5 3.3-.8 2.3-.7 4.1-1.2 6.8-.1-1.7-2-3.3-3.4-6.1-3.3-.5 0-1.1.2-1.6.3-1.4.3-2.7.6-3.8-.8-2.9-3.8 1.1-11.8 3.6-17 .7-1.3 1.2-2.4 1.6-3.3 2.9-7.1 3.9-13.2-3.5-17.3-5.8-3.3-11.7-7.1-15-13.2 2.3-1.3 3.5-3.7 2.9-6.4-.1-.5-2-5.1-2.9-2.8-.1.4-.3.7-.4 1-1.4 3.7-2.3 6-6.6 7.2.6-1.4.9-2.9 1.2-4.2.5-2.6 1-4.9 3.6-6.7l-.3.1c-3.2.3-5.3.4-6.8 4.1l-.8 2.2c-1.2 3.5-1.9 5.6-6.3 6.7.6-1.4.9-2.8 1.2-4.1.5-2.6.9-4.9 3.6-6.6l-.7.1c-2.4.2-3.8.3-5.6 2.6-1.2 1.5-1.7 3.1-2.2 4.5-.9 2.6-1.7 4.7-5.5 5.7.7-1.5 1-2.9 1.2-4.3.4-2.3.7-4.4 3.2-6l-.6.1h-1c-2.4.2-3.9.3-5.6 2.6-.9 1.14-1.3 2.64-1.8 4.1-.7 2.3-1.3 4.6-3.6 5.6l-.5.16c-.6.2-1.5.4-1.7.4 3.3-4.3-3.9-8.4-5.9-3.9l-.1.3c1 2.5-.8 5.9-3.7 5.9-.7 0-1.4-.1-2-.2-1.6-.2-2.9-.37-4.9 1.44-.1-1-.1-2.8 1.1-3.5-3.2-7.6 6.4-8.4 6.4-8.4-5.2-1.9-8.2-1-12 4.6-.8-.44-1.9-1.9-2.4-2.6-1.3-.44-2.8-.24-4 .3.5-1.4 1.6-2.3 3-2.3.1-.5.3-1 .6-1.5 2.7-6.1 7.2-5.2 11.8-3.7-4.2-3.6-5.9-5-11.1-2.5v-1c-.7-1.16-1.8-1.76-3.1-1.6.8-1 2.2-1.3 3.3-1 3.3-6.6 8.6-.95 12.5 3.2 1.1 1.2 2.1 2.23 2.9 2.83 3.5-3.73 8.5-5.15 13.4-6.6 5.8-1.62 11.5-3.3 14.8-8.6 4.5.85 9.1-.4 13-2.73-3.1 4.8-5.5 5.6-5.5 5.6l-1.9.5c9.1 5 18.8 6.7 26.5-1.9-.3 7.4 5.2 11.4 10.8 14.8.1-2.5.4-5 1.1-7.4.4 2.7 1.8 5 3.6 7.1.8.9.5 2.1.2 3.7-.6 2.4-1.4 5.9.8 11.1.6 1.5 1.7 3 3 4.6 2.4 3.3 5.3 7.2 5.9 12.8 0 0 4.9 9.1 13.4 9.4 6.9.2 9.7-6.1 10-8.5.6-5.1-3.4-8.3-7.5-5.5-2.2 1.5-3 4.4-3 4.4-1.3-1.9-2.2-4.5-1.2-7 .5-1.7 2-2.7 3.4-3.3 3.3-.5 4.7 1.1 6.4 3.3 1.9.1 1.2-2.4.6-3.5-1.8-1.3-3.5-1.8-5.2-2.4-3-.9-6.1-1.9-10.3-6.7-3.6-4.2-5-12.4-3.1-18.5 1.6 11 9.4 16 17.1 15.2-12.8-64.7 9.6-71.2 16-70.8 15 .8 12.2 16.4 9.1 33.6-2.2 12.6-4.6 26.1-.4 35.3-2.2-1.9-4.3-3.6-6.2-5.1-5.8-4.6-9.7-7.7-9.5-13.9.2-7.4 8.2-10.8 8.2-10.8s-6.1 1.3-8.8-1.5c-2.3-2.2-3.2-4.6-3-8.6l.5.4c1.7 1.7 3.8 3.7 9.9 2 8-2.5 12-26.44.3-26.8-10-.24-24.1 16-9.3 76.1 2.7 12.5.7 27.7-14 27.3-7.2-.2-10.4-3.5-14.4-7.7l-2.4-2.4zm-18.37-96.7c-2.9-4.28-8.6-6.48-13.3-5.8-5.7.83-10.2-1.03-11.4-5.8l-.1-.77-.2-.3c-1.5-.07-2.9 1.47-3.3 3.8-.4 2.76.8 6.37 5.3 7.68 1.1.32 2.3.44 3.6.44 2.6 0 5.1-.66 7.2-1.2l.1-.04.2-.05c1.3-.34 2.4-.64 3.3-.7 6-.28 8.3 2.22 8.7 2.74z"></path><path data-v-2e3a203a="" id="path3_fill" d="M30.36 6.78s3.23-.84 2.26-2.84c-.3-.6-.97-.9-1.57-1.13-1.72-.6-4.1-.4-4.9-.2l-3.74.8c-1 .2-2.3.5-3.2-.1-.3-.2-.7-.7-.3-1.1 1-1 1.7.7 3.3.5 1.7-.2 2.6-1.7 3.2-2.5-1.4.5-3.9.1-5.3.1-1.3-.1-3.1 1.4-2.3 3s3.1 1.5 4.5 1.2c.8-.2 5.1-1.3 7.3-1.1 2.5.2 2.9 1.8 1.4 2-.7.2-1.3.1-1.9 0-.7-.1-1.4-.2-2.2-.2-1.9 0-3.7.7-5.6 1.1-1.8.4-3.7.4-5.5-.1.1-.7 0-1.5-.3-2.2-.1-.3-.2-.8-.1-1.1.1-.4 0-1-.1-1.5l-1.2.1s-1.2-1-2.6-1c-.9 0-2.1.4-2.5.9-.4-.1-.7-.1-1.1 0-.1.4-.2.9-.1 1.3s.2 1 0 1.3c-.5.8-.6 1.9-.2 2.8-.5.3-2.8-1.8-3-2.1-.5-.9.4-1.4.4-2.2C5 1.9 4.5.9 4 .7c.1.2.1.6-.1.8.2.2.16.7-.12.9h-.1v-.1c.1-.6-1-2.1-1.75-1.5.56.1.3.5.17.9.6.1.9.5.9 1.1v.17l-.1-.13C2.27 1.8.7 1.2.1 1.9c.22 0 .44.1.6.3v.05c-.3.5-.3 1 0 1.4.34.5.7.1 1.14.3.68.3-.44.4-.55.4-.4 0-.4.9-.9.5-.1.6 1 1.6 1.6 1.4.3-.1.8-.5 1.1-.1.4.5-.2 1-.7.98 0 0 1-.3 2.6.9 1.7 1.1 1.3 2 2.8 2.8-1.1 0-2.1 1.1-3 1.6-1 .47-2.7-.88-3.5.17.4-.1.9-.03 1.2.2l.2.1c-.7-.2-1.8 0-2 .88-.1.4-.6 1.2-.3 1.6.2-.5.6-.4 1.1-.3.3-.2.1-.6.3-.8.2-.4.6-.6 1.1-.6l.2.06-.3.06c-.4.1-.7.45-.8.85.1.3 0 .5-.3.6-.2.26-.3.57-.1.8.4-.65 1.1-.5 1.7-.6-.4-.7.3-1.5 1-1.3H4c-.4.1-.73.54-.6.96.17.5.75.4.48 1 .57-.1 1.72-.9 1.42-1.6-.2-.4.1-.8.46-1 .14 0 1.24-.2.9.3 0 0 1.06.2 2-.6.93-.8 3.06-.5 3.26-1.2.6.7 3.2 1.5 6.1-.7.66-.4 2.36-2.7 5.35-3.2.12.4-1.06 1.1-2 1.6-1.4.9-1 3-1.8 3.5-.7.4-1.47-.1-2.2-.2-.66-.1-1.66.3-1.83 1.5-.3.4-.2.4-.14.9.4-.4.53-.6.92-1 .3-.3.63-.4 1.02-.3l-.16.1c-.4.2-.72.5-.86.9v.1h-.05c-.4.2-.58.7-.4 1 .32-.3.8-.4 1.06-.8.3-.4.5-.7 1.06-.8h.2l-.3.1c-.7.3-.9 1.1-.7 1.7.5-.6 3.1-.2 2.2-1.6h-.1.1c.4.1 1 .7.8 1 .9-.2.6-1.1 1.1-1.8.5-.8 1.9-1.2 2.7-1.5 2.4-.9 1.8-2 2.5-2.4.1 2.8 4 2.1 4.7 2.6.7 1.3-1.2.9-1.9 1.1-.6.2-1.4 1.7-1.1 2.2.4-.4.7-.4 1-.9.2-.4.6-.7 1-.7h.2l-.2.1c-.6.3-1.5 1.5-.9 2.1.4-.4 1-.7 1.6-.6-.2-.6.2-1.3.9-1.3l.2.1c-1 .3-.7 1.3-.2 1.9.3-.9 1.5-.4 2-1 .3-.4 0-.7-.1-1.2 0-.4.2-.7-.1-1.1h-.1.2c.3 0 .1 0 0 0 .3 0 .7 0 .9.3 0 0 .1-1.5-1.7-1.7-2.1-.5-1.6-3.5-3.4-4.2z"></path><path data-v-2e3a203a="" id="path4_fill" d="M117.34 23.97c1.8 1.73 3.7 2.44 5.4 3.07 1.8.67 3.4 1.26 4.45 2.9-2 1.18-3.2.74-4.4.3-1.5-.55-3-1.1-5.8 1.5-1.8-2.14-1.6-5.58.3-7.77z"></path><path data-v-2e3a203a="" id="path5_fill" fill-rule="evenodd" d="M187.86 79.23S195.64 191.88 94 231.4C-7.65 191.87.13 79.23.13 79.23v-58.9C53.63-1.8 94 .03 94 .03s40.38-1.8 93.86 20.3v58.9zm-60.22-52.3c.26-7.16-16.42-13.28-12.87-3.78-4.26-3.47-10.6-4.07-15.86-4.07.3 0 1.4 2.42 2 3.94l.5 1.15c-1 .5-2.1.58-3.2.2-.6 2.86-.2 5.5 1.5 7.92.5-4.6 6.9-3.7 10.2-2.5 4 1.4 3.4 3.2 2.6 5.5-.3 1.1-.7 2.2-.7 3.5 0 5.9-1.1 5.8-5.8 5.3l-1.2-.1c-.5-.1-1.1-.2-1.6-.2-2.3-.3-4.8-.6-5.7-3-2.1 1.1-2.7 3.6-3.2 5.8v.2c1 .4 2.4.4 3.7.4h2.1c1.2.1 2.2.5 3.3 1 1.3.5 2.5 1 3.9 1 6 .2 11.1-2 16.3-4.2l.1-.1.1-.1.9-.4c-5.5 8.9-15.6 9.8-25.4 10.6-3.2.3-6.4.5-9.3 1.1-9.4 1.8-11.6 8.2-14 15.4-.8 2.4-1.6 4.8-2.7 7.2C81.4 79.5 87 73 92 67.3l.23-.3c5.4-6.14 10.87-8.13 18.98-8.7-5 2.04-10 4.2-13.8 8.14-2.4 2.4-4.1 5.6-5.8 8.7-2 3.75-4.1 7.48-7.3 9.93 9.2 4.03 13.6-1.6 18.1-7.47 3.5-4.48 7-9.04 12.9-9.4-5.9 5.6-13.2 16.87-4.6 23.46 1.5-5.97 4.9-10.8 9.2-15.1-2.6 7.56-2.3 15.9 4.3 21.37-.8-4.3.5-7.82 1.8-11.5.6-1.56 1.1-3.13 1.6-4.8 1.6-6.4.6-13.3-1.9-19.36 3.6.47 4.5 3.66 5.5 6.8.6 1.93 1.2 3.84 2.3 5.1 0-2.7.9-4.83 1.8-7 .6-1.6 1.3-3.2 1.6-5 .8-4.6-.1-9-2.2-13.1 3.4.44 4.5 2.8 5.6 5.34.4.9.8 1.7 1.3 2.5-.6-3.5 0-6.7.7-10 .9-4.5 1.7-8.9-.8-13.8-1.5 2.2-3.7 3.6-6.3 3.9 2.3-2.6 4.9-8.1 2.8-11.4-3.2-5.1-8.8-4.5-9.5 1.1zm-46.3 1.37c1.45 5.6 6.3 6.72 11.53 6.25 6.78-.6 13.2 2.03 16.52 6.82-3.3-4.73-9.9-3.23-15.6-1.9-2.5.54-4.7 1.07-6.5 1.07-4.3 0-8.9-1.72-9.9-6.3-.6-2.42.2-7.24 3.6-7.05.2.3.3.6.3 1.1zm-3.5 27.2c.33.22.64.45.96.68l.37.27c-3.85 2.58-5.6 6.43-6.83 10.7-5.2-5.16-6.2-13.74-5.76-20.68 3.5 3.32 7.38 6.17 11.27 9.02zm16.9 65.13c.08-1.42-.14-2.83-.14-2.83l2.37 1.43c2.7 1.6 3.4 2.02 3.9 3.73.58 2.13-.35 4.7-.35 4.7s-1.75-2.98-4.4-4.8c-1.47-1-1.43-1.57-1.4-2.15zM44.8 159.25c.03-1.52 1.3-2.7 2.8-2.7 1.54 0 2.8 1.27 2.8 2.82 0 1.4-1.05 2.57-2.4 2.77v.02c3.24.97 4.67-.74 6.03-2.37.46-.6.9-1.1 1.42-1.5 2.9-2.4 9.4-2.2 14.27-2.1 1.37 0 2.6.1 3.58 0 .56 0 1.27 0 2.05.1 3.55.3 8.67.8 7.6-5.2-.84-4.7-.87-9-.92-16.1 6.52 1.8 13.6 4.4 13.6 4.4l3.33-9c-.8-1.2-2.95-4.3-5.92-6.3-1.96-1.4-1.9-6.8-1.88-8.3v-.4c-9.4-1.5-24.78-2.5-25.58 3.2-.63 4.5.42 9.1 1.44 13.6.3 1.2.58 2.5.83 3.8.14.7.34 1.5.55 2.3.96 3.7 2.02 7.8-2.55 8.1L62 147c-6.7.6-13.1 1.2-19.2-2-.4-.2-.7-.42-1.2-.66-2.4-1.43-5.1-3.04-7.7.38-.4.2-.8.24-1.2.28-.84.07-1.7.14-2.2 1.44.77-.16 2.36.36 2.78 1.4 3.45-2.54 5.6-1.96 9.2.97-4.2-1.6-7.32-1.7-10.24 2.9-2.67.6-3.2 2.2-3.5 3.1l-.06.2c2.7-.6 3.4.1 4.33 1 .4.4.9.9 1.6 1.3 2.1-5.6 5.5-5.3 8.8-3.7-5.6-.5-6.3 4.3-6.4 5.9-2.4 1.6-2.1 3.7-2 4.4v.1c1.1-1 2.9-1 4.7-1 2.7 0 5.3 0 5.3-3.6zm127.1-91.13v.04c-2.32 11.48-4.94 24.48-.18 36.37l.87 2.18-1.8-1.5c-1.5-1.2-2.9-2.3-4.2-3.3h-.1l-.5-.4c-5.7-4.5-9.5-7.4-9.3-13.5.1-3.9 2.4-7 4.7-10 1.5-2 3.1-4.1 4-6.5 2.1-5.5 5.1-15.4 3.1-21.4-.9-2.7-2.6-4.5-4.7-5-2.2-.5-4.9.5-7.2 2.8-5.9 6.4-8.7 15.7-8.4 28.4.2 10.9 2.5 22.3 4.4 31.5l.1.5c.8 4.3 1.6 8 2 11.1 1.2 7.2 1.9 15.3-2.6 20.2-2.8 2.9-6.8 4.5-11.2 4.6h-.6c-4.8-.1-12.6-3.3-14.1-7.9-1.8-5.4-4-8-4-8 3.5 6 1.5 11.7-4.7 22.9 5.9 3.3 9.4 8.9 11.7 12.6 1.2 2 2.1 3.5 2.9 3.8 2.7 1.2 5.1 3.9 3.4 6.3-.4.5-1.3 1.7-2.6 3.2-5.1 6.1-15.3 18.3-14.5 21.5.8 3.6-1.5 6-3.2 6.9.4-.4.6-1 .6-1.7 0-1.5-1.3-2.7-2.8-2.7-1.5 0-2.7 1.2-2.7 2.7 0 .5.4 1.5.4 1.5 1.1 3.2-6.3 8.1-8.6 8.2 1.5-2.1.5-3.5.5-3.5-2.5-.8-2.6-4-1.2-5.7.9-1.1 2.9-2.9 2.9-2.9s-6.7.8-7 7.5c-3.2-.3-3.9-.3-7.2 1.3-.3-1.7 2.1-4.1 2.1-4.1s-.6-6.7 9.2-7.1c-6.1-1.3-9.9-.4-12.1 6.5l-.2-.1c-1.9-.8-3.5-1.4-6.3-.2 0-2.2 3-3.6 3-3.6s.9-6.9 13.4-5.1c-3.2-2.5-7.3-2.2-9.9-1.5 3.4-2.5 6.9-1.9 9.8-1.4 2.4.4 4.4.7 5.6-.8.9-1.2 2.5-3.1 4.2-5.2 3.1-3.8 7-8.6 10.1-12.5 1.2-1.6-4.3-5.4-10.3-9.5-6.2-4.3-13-9-13.1-11.8-.4-5.8 1.7-10.6 4.1-15.9l.9-2.1c2.3-5.4 5.7-13.5-.7-17.3-5.7-3.5-13.5-11.1-17.2-16.9l.1-.1c2.4-1.3 5.7-3.1 2.3-9.1.6 8.2-12.8 8.7-22.3 9-4.4.2-7.9.3-8.8 1.1-.9.8-1.1 2.1-1.3 3.3-.3 2.3-.7 4.8-5.2 5 .9-.4 1.5-1.4 1.5-2.5 0-1.5-1.3-2.8-2.8-2.8-1.6 0-2.8 1.3-2.8 2.8 0 3.3-3.6 3.8-6.6 3.7-1.6.2-4.1 1.5-5.2 2.7-.1-1.7-.2-3 .9-4.6-.9-5.2 3.2-7.9 6.3-7.8-7.6-1.9-9.6 4.7-9.6 4.7s-1.7-.7-2.9-2.2c-.4 0-.7-.1-1-.1-1-.2-1.9-.3-3.1.3.6-1.7 1.9-2.5 3.6-3.5 2.4-5.4 6.9-5 9.8-4.3-3-2.4-5.6-2.5-9-.8-.5-1.1-2.7-2.7-4-2.5.8-1.1 2.5-1.9 3.9-1.7 1.3-2.2 4.2-3.3 6.7-2.1 2.1 1.1 3.7 2.6 5.2 4.2 1 1 2 2 3.1 2.9 1 .2 1.3-.1 1.9-.7.3-.2.6-.5 1-.8 3.2-2.4 6.9-3.4 10.7-4.4 3.3-.9 6.6-1.8 9.6-3.7 1.4-.8 2.7-1.8 3.7-3 1-1.1 1.4-1 2.3-.9.3.1.8.1 1.3.1 3.5 0 6.9-1.1 9.9-2.9-1.7 2.6-3.9 5.4-7.2 5.9 8.8 4.9 18.3 6.5 25.8-1.7-.3 7.1 5 11 10.5 14.2.1-2.4.4-4.8 1.1-7.1.4 3.3 2.4 5.9 4.8 8.2l-.3 1c-.7 2.1-1.3 3.6-1.2 6.1.1 4.4 2.7 7.7 5.4 11.2 2 2.7 4.2 5.4 5.2 8.6 2.94 8.9 10.2 11.5 14.04 11.5 12.64 0 9.4-14.5 8.6-17-.5-1.3-1.8-1.7-2.5-1.8-19.8-4-16.78-26.2-16.78-26.2s4.9 10.9 14.3 14.2c2.1.8 2.9-.7 2.5-2.5-4.7-21.3-7.3-44.45 5.2-59.4 4.6-5.5 9-6.2 11.9-5.8 3.63.6 7 3.2 8.6 6.8 2.34 5.4.8 13.1-1 22zm-106-4.8c-1.63-4-3-10.57-2.24-16.62.36-2.2.83-4.07 1.35-5.74 1.6-3.22 3.9-3.94 6-2.88-1.6-2.38-3.4-4.38-4.8-5.92-1.3-1.45-2.3-2.5-2.3-3.05-1.7.4-4.1.2-6.7-.3l-1.8-.6c-2.6-.9-5.3-1.8-7.8-1.5-1.5.3-3.1 1-4.3 2.1-4-3.3-8.9-1.9-12.6-.5-2.8 1.2-5.5 1.5-8.4.9-1 2-1.7 3.1-3 4.3-.5.3-1 .5-1.6.7-1.6.6-3.2 1.1-3.8 3.4 1.5-.6 3.3-.2 4.7 1.4 1.4 1.8 2.5 4.9 2.8 8.6 1.4 13.6-2.9 19.4-6.6 22.3.1.5.5 1.6.8 2.6.4 1 .7 2 .8 2.5C21 85.3 28 86.5 28 86.5s2-1.6 3.76-1.7c4.1 0 6 1.9 10 6.2l1.3 1.4c3.65-3.5 7.7-4.4 11.66-5.2 1.8-.4 3.64-.8 5.4-1.5 4.54-2.1 7.2-5.1 9.46-9.8l.4-1c.4-1.2.9-2.4 1-4.1-2-1.8-3.2-3.26-4.9-7.26z"></path><path data-v-2e3a203a="" id="path6_fill" d="M31.12 10.52c.2 0-3.38-4.2-4.55-4.8 4.3-.56 1.83-4.3-1.54-3.7C9.98 4.7 21.53.9 22.16 0c-1.3.26-7.97-.92-6.36 2.37 1.96 4 13.95-1.15 11.13 2.65-4.4-.45-10.8.8-13.4.05C13 1.67 13.5.05 9.38.17c-3.52.12-3.05 2.4-3 5.28C1.02 5.95 2.4.65 1.58.3c.3.63-.26 1.03-1.3 1.05.3.28.4 2.42.02 2.86.32.7 2.13 2.4 2.68 2.5-.1-.1 3.4.9 4.52 1.6-1.9.2-7.1 3-7.5 4.5.64-.5 1.53-.5 1.27.5.98-.4 2-.6 2.43.2.18-.1 4.62-4 4.48-3.5.84-.1 2.02 1 4.73.3 2.6-.6 5.6-3.6 8.3-4 1.6.3-.7 1.5-2.8 3-2.2 1.6-4.2 3.5-4.3 3.3.6-.8.5.1.5.7.9-.9 1.6-.8 1.3.1 2.6-1.4 6.1-1.5 8.5-5.7 1 2.3 3.7 1.2 4.3 2.6.6 1-2.5 1.8-2.6 2.8.8-.8 1.1-.5 1 .5.8-.7 1.9-1 2.2 0 1.8-.8 1.4-2.8 2.2-2.8z"></path><path data-v-2e3a203a="" id="path8_fill" d="M29.25 12.87h-18.9V37.1h18.9c8.05 0 12.07-4.63 12.07-12.17 0-7.73-4.72-12.06-12.07-12.06zm-.5 34.18h-18.4V73.3H0V2.9h29.45c12.97 0 22.63 7.45 22.63 22.03 0 14.48-9.66 22.12-23.33 22.12z"></path><path data-v-2e3a203a="" id="path9_fill" d="M81.73 29.25c-7.84 0-12.67 6.94-12.67 17.4 0 11.56 5.33 17.9 13.17 17.9 7.85 0 12.97-7.95 12.97-17.6 0-10.76-5.12-17.7-13.47-17.7zm.1 45.15c-13.27 0-23.22-10.96-23.22-27.45 0-17.3 10.3-27.55 23.6-27.55 13.5 0 23.6 10.76 23.6 27.25 0 17.5-10.2 27.75-23.8 27.75z"></path><path data-v-2e3a203a="" id="path10_fill" d="M117.92 73.3V5.43L128.28 0v73.3h-10.36z"></path><path data-v-2e3a203a="" id="path11_fill" d="M143.56 20.5h10.35v52.8h-10.3V20.5zm5.22-6.83c-3.7 0-6.73-3-6.73-6.63 0-3.72 3.02-6.74 6.73-6.74 3.62 0 6.64 3.02 6.64 6.74 0 3.62-3.02 6.63-6.64 6.63z"></path><path data-v-2e3a203a="" id="path12_fill" d="M193.93 71.98c-2.52 1.4-6.04 2.42-10.16 2.42-7.34 0-11.86-4.52-11.86-13.97V29.96h-7.5V20.5h7.6V5.44L182.1 0v20.5h13.06v9.46H182.1V58.6c0 4.94 1.6 6.35 5.42 6.35 2.7 0 5.72-1 7.63-2.1l-1.2 9.13z"></path><path data-v-2e3a203a="" id="path13_fill" d="M224.58 74.4c-7.14 0-14.88-2.8-20.2-6.74l4.72-7.84c4.93 3.42 10.45 5.23 15.38 5.23 6.53 0 9.65-2.1 9.65-5.83 0-4.02-4.62-5.93-12.26-8.85-11.37-4.42-15.5-8.24-15.5-16.6 0-9.44 7.45-14.37 18-14.37 6.64 0 13.18 2.42 17.9 5.84l-4.52 7.94c-4.32-3.02-8.65-4.53-13.68-4.53-5.02 0-7.23 2.02-7.23 4.83 0 2.62 1.8 4.53 9.75 7.64 11.7 4.53 17.7 7.74 17.7 17.7 0 11.66-9.5 15.58-19.8 15.58z"></path><path data-v-2e3a203a="" id="path14_fill" d="M275.55 28.75c-6.94 0-11.16 4.83-12.07 13.28H288c-.5-7.24-3.9-13.28-12.45-13.28zm22.62 21.82h-34.9c1.12 10.16 6.85 14.48 13.28 14.48 4.43 0 7.94-1.6 11.46-4.22l6.2 6.63c-4.6 4.43-10.1 6.94-18.2 6.94-12.3 0-22.8-9.95-22.8-27.45 0-17.9 9.5-27.55 23.1-27.55 15 0 22.2 12.17 22.2 26.45 0 1.9-.2 3.6-.3 4.72z"></path><path data-v-2e3a203a="" id="path15_fill" d="M310.83 20.5h10.35v52.8h-10.35V20.5zm5.23-6.83c-3.72 0-6.74-3-6.74-6.63 0-3.72 3.02-6.74 6.74-6.74 3.62 0 6.63 3.02 6.63 6.74 0 3.62-3.1 6.63-6.7 6.63z"></path><path data-v-2e3a203a="" id="path16_fill" d="M359 31.37h-25.15v10.25H359V31.37z"></path><path data-v-2e3a203a="" id="path17_fill" d="M403.02 13.67c-3.72 0-6.73-3.02-6.73-6.63 0-3.72 3-6.74 6.7-6.74 3.6 0 6.6 3.02 6.6 6.74 0 3.6-3 6.63-6.7 6.63zm-12.77 79l-3.52-7.82c9.65-2.72 11.07-4.72 11.07-13.77V20.5h10.35v50.4c0 13.26-3.32 18.8-17.9 21.8z"></path><path data-v-2e3a203a="" id="path18_fill" d="M453.2 50.77c-2.82-1.4-6.44-2.3-12.07-2.3-6.64 0-10.86 3-10.86 7.83 0 5.23 3.32 8.75 10.15 8.75 5.53 0 10.36-3.42 12.77-6.74v-7.5zm0 22.53v-5.24c-3.63 3.62-8.76 6.34-14.5 6.34-8.53 0-18.28-4.83-18.28-17.8 0-11.76 9.04-17.1 21-17.1 4.94 0 8.85.72 11.77 2.02V37.6c0-5.73-3.6-8.95-10-8.95-5.5 0-9.7 1-13.8 3.32l-4-7.84c5-3.12 10.6-4.73 18.1-4.73 11.7 0 19.8 5.74 19.8 17.7v36.2h-10.1z"></path><path data-v-2e3a203a="" id="path19_fill" d="M534.12 12.87h-18.9V37.1h18.9c8.05 0 12.06-4.63 12.06-12.17 0-7.73-4.72-12.06-12.06-12.06zm-.5 34.18h-18.4V73.3h-10.36V2.9h29.46c12.96 0 22.62 7.45 22.62 22.03 0 14.48-9.66 22.12-23.33 22.12z"></path><path data-v-2e3a203a="" id="path20_fill" d="M568.5 20.5h10.35v52.8H568.5V20.5zm5.23-6.83c-3.73 0-6.74-3-6.74-6.63 0-3.72 3-6.74 6.7-6.74 3.6 0 6.6 3.02 6.6 6.74 0 3.62-3 6.63-6.7 6.63z"></path><path data-v-2e3a203a="" id="path21_fill" d="M594.14 20.5h10.35v52.8h-10.4V20.5zm5.22-6.83c-3.72 0-6.73-3-6.73-6.63 0-3.72 3-6.74 6.73-6.74 3.62 0 6.64 3.02 6.64 6.74 0 3.62-3.02 6.63-6.64 6.63z"></path><path data-v-2e3a203a="" id="path22_fill" d="M647.92 31.47c-2.2-1.2-4.52-1.9-7.94-1.9-6.54 0-10.36 4.6-10.36 13.56V73.3h-10.36V20.5h10.36v5.03c2.4-3.5 6.84-6.13 12.06-6.13 4.23 0 6.84.8 8.95 2.22l-2.7 9.85z"></path><path data-v-2e3a203a="" id="path23_fill" d="M660.8 20.5h10.34v52.8H660.8V20.5zm5.2-6.83c-3.7 0-6.72-3-6.72-6.63 0-3.72 3-6.74 6.73-6.74 3.7 0 6.7 3.02 6.7 6.74 0 3.62-3 6.63-6.6 6.63z"></path><path data-v-2e3a203a="" id="path24_fill" d="M710.86 73.3H700.5l-18.9-52.8h10.86l9.44 28.66c1.72 5.13 3.23 10.06 3.93 12.97.6-2.9 2-7.84 3.62-12.97l9.05-28.65h10.96l-18.6 52.8z"></path><path data-v-2e3a203a="" id="path25_fill" d="M766.84 50.77c-2.8-1.4-6.44-2.3-12.06-2.3-6.64 0-10.86 3-10.86 7.83 0 5.23 3.3 8.75 10.16 8.75 5.52 0 10.35-3.42 12.76-6.74v-7.5zm0 22.53v-5.24c-3.62 3.62-8.75 6.34-14.48 6.34-8.54 0-18.3-4.83-18.3-17.8 0-11.76 9.05-17.1 21.02-17.1 4.92 0 8.85.72 11.76 2.02V37.6c0-5.73-3.52-8.95-9.96-8.95-5.42 0-9.65 1-13.77 3.32l-4-7.84c5.1-3.12 10.7-4.73 18.1-4.73 11.8 0 19.8 5.74 19.8 17.7v36.2h-10.1z"></path><path data-v-2e3a203a="" id="path26_fill" d="M791.37 73.3V5.43L801.73 0v73.3h-10.36z"></path><path data-v-2e3a203a="" id="path27_fill" d="M841.43 73.3H831.1l-18.92-52.8h10.86l9.45 28.66c1.7 5.13 3.2 10.06 3.9 12.97.6-2.9 2-7.84 3.6-12.97l9-28.66h11l-18.6 52.8z"></path><path data-v-2e3a203a="" id="path28_fill" d="M888.08 28.75c-6.94 0-11.16 4.83-12.07 13.28h24.6c-.5-7.24-3.9-13.28-12.4-13.28zm22.62 21.82h-34.9c1.12 10.16 6.85 14.48 13.28 14.48 4.43 0 7.94-1.6 11.47-4.22l6.13 6.63c-4.63 4.43-10.16 6.94-18.2 6.94-12.37 0-22.82-9.95-22.82-27.45 0-17.9 9.45-27.55 23.12-27.55 14.98 0 22.22 12.17 22.22 26.45 0 1.9-.2 3.6-.3 4.72z"></path><path data-v-2e3a203a="" id="path29_fill" d="M952.4 50.77c-2.8-1.4-6.42-2.3-12.06-2.3-6.63 0-10.85 3-10.85 7.83 0 5.23 3.3 8.75 10.1 8.75 5.5 0 10.3-3.42 12.7-6.74v-7.5zm0 22.53v-5.24c-3.6 3.62-8.74 6.34-14.47 6.34-8.55 0-18.3-4.83-18.3-17.8 0-11.76 9.05-17.1 21.02-17.1 4.92 0 8.84.72 11.76 2.02V37.6c0-5.73-3.5-8.95-9.9-8.95-5.4 0-9.6 1-13.7 3.32l-4-7.84c5.1-3.12 10.7-4.73 18.1-4.73 11.8 0 19.8 5.74 19.8 17.7v36.2h-10.2z"></path><path data-v-2e3a203a="" id="path30_fill" d="M1037.76 73.3V43.43c0-10.65-3.32-14.48-10.15-14.48-6.9 0-10.1 4.93-10.1 13.48V73.3h-10.3V43.42c0-10.65-3.3-14.48-10.1-14.48-6.9 0-10.1 4.93-10.1 13.48V73.3h-10.4V20.5H987v5.03c2.6-3.82 7.14-6.13 12.57-6.13 7.15 0 11.68 2.72 14.5 7.74 3.8-4.72 7.93-7.74 16.2-7.74 12.24 0 18.07 8.05 18.07 23.63V73.3h-10.36z"></path><path data-v-2e3a203a="" id="path31_fill" d="M1081.9 28.75c-6.95 0-11.17 4.83-12.07 13.28h24.53c-.5-7.24-3.92-13.28-12.46-13.28zm22.62 21.82h-34.9c1.1 10.16 6.85 14.48 13.28 14.48 4.43 0 7.94-1.6 11.46-4.22l6.14 6.63c-4.63 4.43-10.16 6.94-18.2 6.94-12.37 0-22.83-9.95-22.83-27.45 0-17.9 9.46-27.55 23.13-27.55 14.98 0 22.2 12.17 22.2 26.45 0 1.9-.18 3.6-.28 4.72z"></path><path data-v-2e3a203a="" id="path32_fill" d="M1141.1 71.98c-2.5 1.4-6.02 2.42-10.15 2.42-7.34 0-11.86-4.52-11.86-13.97V29.96h-7.6V20.5h7.5V5.44L1129.2 0v20.5h13.06v9.46h-13.07V58.6c0 4.94 1.6 6.35 5.4 6.35 2.7 0 5.7-1 7.6-2.1l-1.2 9.13z"></path><path data-v-2e3a203a="" id="path33_fill" d="M3.25 59.2V2.36h36.6v8.28H11.78V24.7H28.1v8.27H11.76v17.95h29.3v8.28H3.26z"></path><path data-v-2e3a203a="" id="path34_fill" d="M80.2 47.5c0 2.4-.44 4.38-1.34 5.97-.9 1.6-2.1 2.9-3.56 3.86-1.48.97-3.18 1.68-5.1 2.1-1.93.45-3.95.66-6.06.66-2.92 0-5.84-.6-8.73-1.6-2.9-1.1-5.4-2.4-7.5-3.9l3.8-6.4c2 1.4 4.1 2.4 6.2 3.1 2.2.7 4.2 1 6.2 1 5.2 0 7.8-1.6 7.8-4.7 0-1.7-.9-3-2.6-3.9-1.7-1-4.1-2.1-7.2-3.3-2.3-.9-4.2-1.8-5.8-2.7-1.6-.9-2.9-1.9-3.9-2.9s-1.7-2.2-2.1-3.5c-.4-1.3-.6-2.8-.6-4.4 0-1.9.4-3.6 1.1-5.1.7-1.5 1.7-2.7 3-3.7s2.8-1.7 4.6-2.2c1.8-.5 3.7-.8 5.8-.8 2.7 0 5.3.4 7.8 1.3 2.5.8 4.7 2 6.6 3.4L75 26.2c-1.7-1.22-3.5-2.2-5.3-2.8-1.8-.6-3.7-.9-5.7-.9s-3.5.4-4.4 1.1c-.96.8-1.4 1.7-1.4 2.8 0 .6.1 1.1.3 1.5.2.5.64 1 1.24 1.5s1.4 1 2.4 1.5 2.37 1.1 4 1.72c2.4.9 4.5 1.8 6.3 2.6 1.8.84 3.3 1.8 4.56 2.84 1.2 1.05 2.1 2.3 2.7 3.7.6 1.4.9 3.1.9 5.1z"></path><path data-v-2e3a203a="" id="path35_fill" d="M108.8 58.14c-1.03.6-2.24 1.07-3.62 1.42-1.38.35-2.9.53-4.6.53-2.96 0-5.3-1-7-2.8-1.7-1.8-2.58-4.7-2.58-8.5V24.2h-6.08v-7.63h6.1V4.4L99.2 0v16.57h10.55v7.63H99.2v23.14c0 2 .35 3.36 1.03 4.06.68.7 1.8 1.06 3.37 1.06 1.08 0 2.2-.17 3.33-.53 1.14-.35 2.08-.74 2.84-1.18l-.98 7.4z"></path><path data-v-2e3a203a="" id="path36_fill" d="M153.78 37.68c0 3.52-.5 6.67-1.46 9.46-.98 2.8-2.33 5.14-4.06 7.06-1.72 1.92-3.75 3.4-6.07 4.4-2.4 1-4.9 1.5-7.7 1.5-2.7 0-5.2-.54-7.5-1.6-2.3-1.05-4.3-2.55-5.9-4.5-1.7-1.95-3-4.27-4-6.98-1-2.7-1.4-5.74-1.4-9.1 0-3.46.5-6.57 1.4-9.34 1-2.76 2.3-5.1 4-7.02 1.7-1.92 3.7-3.38 6-4.38s4.8-1.5 7.5-1.5 5.2.52 7.5 1.58c2.3 1.05 4.3 2.53 6 4.42 1.7 1.9 3 4.2 4 6.94.9 2.74 1.4 5.76 1.4 9.06zm-8.37.24c0-4.38-.9-7.86-2.8-10.43-1.9-2.6-4.6-3.9-8-3.9-3.2 0-5.7 1.3-7.5 3.8-1.8 2.5-2.7 5.9-2.7 10.2 0 4.7 1 8.3 3 10.7 2 2.4 4.6 3.7 7.8 3.7 1.6 0 3-.4 4.4-1.2 1.3-.8 2.5-1.8 3.4-3.1.9-1.3 1.6-2.8 2.1-4.5.5-1.8.8-3.6.8-5.6z"></path><path data-v-2e3a203a="" id="path37_fill" d="M188.44 59.2V35.14c0-4.32-.77-7.35-2.3-9.08-1.55-1.73-3.7-2.6-6.46-2.6-2.82 0-5 .95-6.5 2.84-1.52 1.9-2.27 4.57-2.27 8.03V59.2h-8.3V16.62h8.4v4.06c1.1-1.6 2.6-2.82 4.5-3.7 2-.87 4-1.3 6.3-1.3 5 0 8.8 1.6 11.3 4.78 2.6 3.2 3.9 7.96 3.9 14.3V59.2h-8.3z"></path><path data-v-2e3a203a="" id="path38_fill" d="M217.2 5.7c0 1.45-.54 2.7-1.6 3.76-1.05 1.06-2.3 1.6-3.77 1.6-1.52 0-2.8-.54-3.86-1.6s-1.58-2.3-1.58-3.77c0-1.6.5-2.8 1.5-3.9C209 .7 210.3.2 211.8.2c1.46 0 2.7.54 3.77 1.6 1 1.06 1.6 2.34 1.6 3.86zm-9.6 10.87h8.37V59.2h-8.37V16.57z"></path><path data-v-2e3a203a="" id="path39_fill" d="M251.53 59.2v-4.22c-1.46 1.46-3.2 2.67-5.2 3.65-2 .97-4.17 1.46-6.5 1.46-1.73 0-3.47-.3-5.23-.8-1.76-.5-3.34-1.4-4.75-2.5-1.4-1.2-2.56-2.6-3.45-4.5-.9-1.9-1.34-4.1-1.34-6.7 0-2.4.43-4.5 1.3-6.2.87-1.8 2.06-3.2 3.57-4.3 1.52-1.2 3.3-2 5.36-2.6 2-.5 4.3-.8 6.7-.8 3.9 0 7 .5 9.5 1.6v-3.1c0-2.4-.7-4.1-2.1-5.4-1.4-1.3-3.4-1.9-6-1.9-2.3 0-4.2.2-6 .6-1.8.4-3.5 1.1-5.2 2l-3.2-6.3c2-1.3 4.2-2.2 6.5-2.9 2.3-.7 5-1 8-1 4.8 0 8.7 1.1 11.6 3.5 3 2.3 4.4 5.9 4.4 10.7V59h-8.2zm0-18.2c-1.14-.6-2.47-1.05-4.02-1.37-1.5-.33-3.4-.5-5.7-.5-2.7 0-4.8.58-6.4 1.7-1.5 1.15-2.3 2.7-2.3 4.64 0 2.12.7 3.82 2.1 5.12 1.4 1.3 3.4 1.9 6.2 1.9 2.3 0 4.3-.6 6.2-1.7 1.8-1.2 3.2-2.4 4.2-3.8v-6z"></path><path data-v-2e3a203a="" id="path40_fill" d="M296.02 59.2V35.14c0-4.32-.77-7.35-2.3-9.08-1.56-1.73-3.7-2.6-6.47-2.6-2.8 0-4.98.95-6.5 2.84-1.5 1.9-2.26 4.57-2.26 8.03V59.2h-8.4V16.62h8.3v4.06c1-1.6 2.5-2.82 4.5-3.7 1.9-.87 4-1.3 6.2-1.3 5 0 8.7 1.6 11.3 4.78 2.5 3.2 3.8 7.96 3.8 14.3V59.2H296z"></path><path data-v-2e3a203a="" id="path41_fill" d="M378.35 20.14c0 2.92-.46 5.5-1.38 7.7-.92 2.24-2.22 4.1-3.9 5.62-1.68 1.52-3.67 2.65-5.97 3.4-2.3.77-4.83 1.15-7.6 1.15h-14.84v21.2h-8.37V2.4H360c2.6 0 5.02.38 7.27 1.13 2.25.75 4.2 1.87 5.8 3.36 1.63 1.5 2.9 3.3 3.82 5.5.9 2.2 1.3 4.8 1.3 7.7zm-8.7 0c0-3.14-.87-5.55-2.63-7.23-1.76-1.6-4.13-2.5-7.1-2.5h-15.26V30h15.26c3.25 0 5.68-.86 7.3-2.6 1.63-1.73 2.44-4.13 2.44-7.22z"></path><path data-v-2e3a203a="" id="path42_fill" d="M420.73 37.68c0 3.52-.5 6.67-1.46 9.46-.97 2.8-2.32 5.14-4.05 7.06s-3.75 3.4-6.07 4.4c-2.33 1-4.86 1.5-7.62 1.5-2.7 0-5.18-.54-7.45-1.6-2.27-1.05-4.24-2.55-5.92-4.5-1.67-1.95-2.98-4.27-3.93-6.98-.94-2.7-1.4-5.74-1.4-9.1 0-3.46.47-6.57 1.44-9.34.98-2.76 2.3-5.1 4-7.02 1.72-1.92 3.72-3.38 6-4.38 2.3-1 4.8-1.5 7.5-1.5s5.22.52 7.54 1.58c2.4 1.05 4.4 2.53 6.1 4.42 1.7 1.9 3.1 4.2 4 6.94 1 2.74 1.5 5.76 1.5 9.06zm-8.36.24c0-4.38-.97-7.86-2.9-10.43-1.93-2.6-4.6-3.9-8.02-3.9-3.2 0-5.72 1.3-7.54 3.8-1.8 2.5-2.7 5.9-2.7 10.2 0 4.7 1 8.3 3 10.7 2 2.4 4.6 3.7 7.8 3.7 1.6 0 3-.4 4.3-1.2 1.3-.8 2.5-1.8 3.4-3.1.9-1.3 1.7-2.8 2.1-4.5.5-1.8.8-3.6.8-5.6z"></path><path data-v-2e3a203a="" id="path43_fill" d="M429.9 59.2V4.4l8.37-4.4v59.2h-8.36z"></path><path data-v-2e3a203a="" id="path44_fill" d="M459.38 5.7c0 1.45-.53 2.7-1.58 3.76-1.06 1.06-2.32 1.6-3.78 1.6-1.52 0-2.8-.54-3.86-1.6-1.05-1.06-1.58-2.3-1.58-3.77 0-1.6.53-2.8 1.58-3.9C451.22.7 452.5.2 454.02.2c1.46 0 2.72.55 3.78 1.6 1.05 1.07 1.58 2.35 1.58 3.87zm-9.58 10.87h8.36V59.2h-8.36V16.57z"></path><path data-v-2e3a203a="" id="path45_fill" d="M496 28.83c-1.73-1.8-3.43-3.1-5.08-3.94-1.65-.9-3.42-1.3-5.3-1.3-3.1 0-5.54 1.2-7.32 3.7-1.8 2.5-2.68 5.9-2.68 10.3 0 2.1.2 4 .65 5.8.43 1.7 1.08 3.3 1.95 4.5.86 1.3 1.93 2.3 3.2 3 1.27.7 2.75 1 4.43 1 2 0 3.7-.5 5.07-1.4 1.38-.9 2.9-2.2 4.6-4l5.35 5.2c-.8 1.1-1.7 2.1-2.68 3-1 1-2.1 1.8-3.3 2.5-1.2.7-2.6 1.3-4.1 1.7-1.6.4-3.3.6-5.2.6-2.6 0-5-.6-7.3-1.6s-4.2-2.6-5.8-4.5-2.9-4.2-3.9-7c-1-2.7-1.4-5.8-1.4-9.1 0-3.5.5-6.7 1.4-9.4.9-2.8 2.2-5.1 3.9-7.1 1.6-1.9 3.6-3.4 5.9-4.4 2.2-1 4.7-1.5 7.3-1.5 3.1 0 5.9.6 8.4 1.8 2.4 1.2 4.7 3 6.7 5.4l-4.9 5.9z"></path><path data-v-2e3a203a="" id="path46_fill" d="M543.17 37.03c0 .76-.03 1.47-.08 2.15-.1.68-.2 1.23-.2 1.66h-28.2c.2 2.06.6 3.82 1.3 5.28.6 1.47 1.4 2.67 2.4 3.62.9.94 2 1.65 3.2 2.1 1.2.47 2.4.7 3.7.7 1.8 0 3.4-.3 4.9-.9 1.5-.6 2.9-1.43 4.3-2.5l4.9 5.35c-1.9 1.7-4 3.1-6.4 4.1-2.4.9-5.1 1.4-8.4 1.4-2.5 0-4.8-.5-7.1-1.5-2.2-1-4.2-2.4-5.9-4.3-1.7-1.9-3-4.3-4-7-1-2.8-1.5-5.9-1.5-9.4 0-3.7.4-6.9 1.4-9.6.9-2.8 2.2-5.1 3.8-7 1.6-1.9 3.6-3.3 5.9-4.3 2.3-1 4.8-1.5 7.6-1.5 3 0 5.6.5 7.9 1.7 2.2 1.1 4.1 2.6 5.6 4.6 1.5 1.9 2.6 4.2 3.3 6.8.7 2.6 1.1 5.3 1.1 8.2zm-8.37-3.1c-.1-1.45-.36-2.83-.77-4.13-.4-1.3-1-2.44-1.82-3.4-.8-.98-1.8-1.76-3-2.32-1.2-.57-2.7-.86-4.4-.86-2.8 0-5 .94-6.7 2.8-1.6 1.87-2.6 4.5-3 7.92h19.8z"></path><path data-v-2e3a203a="" id="path47_fill" d="M26.47 140.1v-4.2c-1.47 1.45-3.2 2.67-5.2 3.64-2 .98-4.17 1.47-6.5 1.47-1.73 0-3.47-.2-5.23-.7-1.76-.5-3.34-1.3-4.75-2.5-1.5-1.1-2.6-2.6-3.5-4.4-.9-1.8-1.4-4-1.4-6.6 0-2.4.4-4.4 1.3-6.1.8-1.7 2-3.1 3.5-4.3 1.5-1.1 3.3-2 5.3-2.5s4.3-.8 6.7-.8c3.9 0 7 .5 9.5 1.6v-3.2c0-2.3-.7-4.1-2.1-5.3-1.4-1.2-3.4-1.8-6-1.8-2.2 0-4.2.2-6 .7-1.8.5-3.5 1.1-5.2 2.1l-3-6.4c2-1.3 4.2-2.2 6.5-2.8 2.3-.7 5-1 8-1 4.7 0 8.6 1.1 11.5 3.5 2.9 2.4 4.4 5.9 4.4 10.8v29.2h-8.2zm0-18.18c-1.14-.6-2.48-1.05-4.02-1.38-1.55-.32-3.45-.5-5.73-.5-2.7 0-4.84.58-6.4 1.72-1.58 1.13-2.37 2.68-2.37 4.63 0 2.1.68 3.8 2.03 5.1 1.36 1.3 3.4 1.9 6.18 1.9 2.27 0 4.3-.6 6.13-1.7 1.8-1.2 3.2-2.4 4.1-3.8v-6.1z"></path><path data-v-2e3a203a="" id="path48_fill" d="M70.96 140.1v-24.05c0-4.32-.77-7.34-2.3-9.07-1.56-1.73-3.7-2.6-6.47-2.6-2.9 0-5 .95-6.5 2.84-1.6 1.9-2.3 4.56-2.3 8.02v24.87H45V97.6h8.36v4.06c1.1-1.6 2.6-2.82 4.5-3.7 1.93-.87 4-1.3 6.22-1.3 4.98 0 8.76 1.6 11.33 4.8 2.6 3.2 3.9 7.95 3.9 14.3v24.42H71z"></path><path data-v-2e3a203a="" id="path49_fill" d="M115.37 140.06V136c-1.57 1.42-3.25 2.62-5.03 3.57-1.8.96-3.82 1.44-6.1 1.44-2.27 0-4.4-.4-6.4-1.3-2-.8-3.76-2.2-5.24-4-1.5-1.8-2.66-4.2-3.5-7.1-.84-2.9-1.25-6.4-1.25-10.4 0-3.6.45-6.8 1.38-9.5.9-2.7 2.15-4.9 3.7-6.7 1.53-1.8 3.32-3.1 5.35-4 2.03-.8 4.15-1.3 6.37-1.3 2.17 0 4.2.5 6.1 1.5 1.9 1 3.43 2.1 4.62 3.5V85.3l8.36-4.3v59.14h-8.36zm.08-30.1c-.5-.65-1.08-1.3-1.8-1.94-.7-.65-1.47-1.24-2.34-1.78-.8-.54-1.8-.98-2.8-1.33-1-.3-2-.5-3-.5-3 0-5.3 1.1-6.9 3.4-1.5 2.3-2.3 5.6-2.3 10.2 0 5.4.9 9.3 2.5 11.7 1.7 2.5 4.1 3.7 7.1 3.7 2 0 3.9-.5 5.6-1.6 1.7-1.1 3.1-2.4 4.2-3.8v-18z"></path><path data-v-2e3a203a="" id="path50_fill" d="M197.94 122.63c0 5.8-1.7 10.17-5.07 13.1-3.4 2.92-8.2 4.38-14.42 4.38h-22.57V83.3h23.4c4.97 0 8.93 1.26 11.88 3.77 2.95 2.52 4.43 6.18 4.43 11 0 2.9-.7 5.27-2.1 7.08-1.4 1.8-3.1 3.23-5.2 4.26 1.1.3 2.2.8 3.4 1.5 1.1.7 2.1 1.6 3.1 2.7.9 1.1 1.6 2.4 2.2 3.9.5 1.5.8 3.3.8 5.2zM187.06 98.5c0-2.1-.6-3.87-1.78-5.3-1.2-1.42-3.23-2.14-6.1-2.14h-15.26v14.62h15.27c1.4 0 2.6-.2 3.6-.6 1-.4 1.8-.95 2.4-1.62.6-.67 1.1-1.44 1.4-2.3.3-.86.4-1.75.4-2.67zm2.36 24.4c0-2.93-.87-5.23-2.6-6.9-1.74-1.68-4.23-2.52-7.47-2.52h-15.43v18.84h15.18c3.8 0 6.46-.87 8-2.6s2.32-4 2.32-6.82z"></path><path data-v-2e3a203a="" id="path51_fill" d="M242.92 118.6c0 3.5-.5 6.67-1.46 9.46-.97 2.78-2.32 5.14-4.05 7.06-1.7 1.92-3.7 3.38-6 4.38s-4.8 1.5-7.6 1.5c-2.7 0-5.2-.52-7.4-1.57-2.2-1.06-4.2-2.57-5.9-4.5-1.6-1.96-2.9-4.3-3.9-7s-1.4-5.73-1.4-9.1c0-3.45.5-6.57 1.5-9.33s2.3-5.1 4-7.02c1.7-1.92 3.7-3.38 6-4.4 2.3-1 4.8-1.5 7.5-1.5s5.2.54 7.6 1.6c2.4 1.05 4.4 2.52 6.1 4.42 1.7 1.9 3 4.2 4 6.94 1 2.73 1.5 5.75 1.5 9.05zm-8.36.24c0-4.4-.97-7.87-2.9-10.44-1.92-2.56-4.6-3.86-8.03-3.86-3.2 0-5.72 1.3-7.53 3.86-1.82 2.57-2.73 5.97-2.73 10.2 0 4.7.97 8.3 2.93 10.76 1.96 2.46 4.54 3.7 7.75 3.7 1.57 0 3-.4 4.3-1.15 1.32-.7 2.43-1.7 3.36-3 1-1.2 1.7-2.8 2.2-4.5.5-1.7.8-3.6.8-5.5z"></path><path data-v-2e3a203a="" id="path52_fill" d="M274.83 106.33c-.92-.5-1.87-.86-2.84-1.14-1-.3-2.2-.4-3.6-.4-2.7 0-4.7.9-6.2 2.7-1.5 1.8-2.2 4.5-2.2 8.2V140h-8.4V97.5h8.4v4.06c1-1.4 2.3-2.6 4-3.53 1.7-.94 3.6-1.4 5.7-1.4 1.7 0 3.1.14 4.2.43 1.1.3 2.1.75 3 1.34l-2.2 7.96z"></path><path data-v-2e3a203a="" id="path53_fill" d="M307.4 140.06V136c-1.58 1.42-3.26 2.62-5.05 3.57-1.8.96-3.8 1.44-6.1 1.44-2.26 0-4.4-.4-6.4-1.3-2-.8-3.75-2.2-5.24-4-1.4-1.8-2.6-4.2-3.4-7.1-.8-2.9-1.2-6.4-1.2-10.4 0-3.6.5-6.8 1.4-9.5 1-2.7 2.2-4.9 3.7-6.7 1.6-1.8 3.4-3.1 5.4-4 2.1-.8 4.2-1.3 6.4-1.3s4.2.5 6.1 1.5c1.9 1 3.5 2.1 4.7 3.5V85.3L316 81v59.14h-8.37zm.07-30.1c-.5-.65-1.1-1.3-1.8-1.94-.7-.65-1.48-1.24-2.35-1.78-.86-.54-1.8-.98-2.8-1.33-1-.3-2-.5-3.04-.5-3.03 0-5.33 1.1-6.9 3.4-1.57 2.3-2.35 5.6-2.35 10.2 0 5.4.82 9.3 2.47 11.7 1.65 2.5 4.02 3.7 7.1 3.7 2 0 3.85-.5 5.53-1.6 1.67-1.1 3.06-2.4 4.14-3.8v-18z"></path><path data-v-2e3a203a="" id="path54_fill" d="M360.9 117.94c0 .76-.03 1.48-.1 2.15-.05.6-.1 1.2-.15 1.6h-28.17c.2 2 .64 3.8 1.3 5.3.65 1.4 1.46 2.6 2.43 3.6 1 .9 2.1 1.6 3.3 2.1 1.2.4 2.5.7 3.8.7 1.8 0 3.5-.3 4.9-.9 1.5-.6 3-1.5 4.4-2.5l5 5.3c-1.9 1.8-4 3.1-6.3 4.1-2.3 1-5.1 1.5-8.3 1.5-2.4 0-4.8-.5-7.1-1.5-2.2-1-4.2-2.4-5.9-4.3-1.6-1.9-3-4.2-3.9-7-1-2.8-1.4-5.9-1.4-9.5 0-3.6.5-6.8 1.4-9.6 1-2.7 2.2-5.1 3.8-6.9 1.6-1.9 3.6-3.3 5.9-4.3 2.3-1 4.9-1.5 7.6-1.5 3.1 0 5.7.5 7.9 1.7 2.3 1.1 4.1 2.6 5.6 4.6 1.5 1.9 2.6 4.2 3.4 6.8.7 2.6 1.1 5.3 1.1 8.2zm-8.37-3.08c-.1-1.46-.37-2.84-.77-4.14-.4-1.3-1.02-2.44-1.83-3.4-.8-1-1.82-1.76-3.05-2.33-1.2-.6-2.7-.9-4.42-.9-2.82 0-5.05.9-6.7 2.8-1.65 1.8-2.67 4.5-3.05 7.9h19.9z"></path><path data-v-2e3a203a="" id="path55_fill" d="M392.88 106.33c-.92-.5-1.87-.86-2.84-1.14-.98-.3-2.17-.4-3.57-.4-2.66 0-4.7.9-6.18 2.7-1.5 1.8-2.2 4.5-2.2 8.2V140h-8.4V97.5h8.3v4.06c.9-1.4 2.3-2.6 4-3.53 1.7-.94 3.6-1.4 5.7-1.4 1.7 0 3.1.14 4.2.43 1.1.3 2.1.75 2.9 1.34l-2.2 7.96z"></path><path data-v-2e3a203a="" id="path56_fill" d="M460.06 127.65c-1.05 2.84-2.54 5.26-4.46 7.27-1.92 2-4.2 3.5-6.86 4.55-2.66 1.02-5.55 1.54-8.7 1.54-3.67 0-7-.7-9.94-2.1-2.95-1.4-5.46-3.4-7.55-6-2.08-2.6-3.7-5.6-4.83-9.2-1.14-3.6-1.7-7.5-1.7-11.8 0-4.3.56-8.2 1.7-11.8 1.14-3.6 2.75-6.7 4.83-9.3 2.1-2.6 4.6-4.6 7.55-6 2.95-1.4 6.27-2.1 9.95-2.1 4.65 0 8.55.9 11.7 2.7 3.13 1.8 5.68 4.5 7.63 7.9L451.9 98c-1.46-2.32-3.07-4.03-4.83-5.1-1.76-1.1-4.1-1.64-7.02-1.64-4.98 0-8.78 1.9-11.4 5.6-2.63 3.77-3.95 8.8-3.95 15.2 0 6.4 1.3 11.47 3.94 15.2 2.63 3.75 6.43 5.6 11.4 5.6 2.33 0 4.3-.33 5.94-1.03 1.62-.7 2.95-1.65 3.98-2.8 1.02-1.2 1.78-2.53 2.27-4.1.5-1.55.73-3.16.73-4.84v-.3h-9.26v-8.2h17.95v6.5c0 3.7-.53 6.9-1.58 9.8z"></path><path data-v-2e3a203a="" id="path57_fill" d="M496.48 140.06V136c-1.1 1.6-2.6 2.82-4.5 3.7-1.93.87-4 1.3-6.22 1.3-4.98 0-8.76-1.6-11.33-4.78-2.57-3.2-3.85-7.96-3.85-14.3V97.5h8.36v24.07c0 4.32.77 7.35 2.3 9.07 1.56 1.73 3.7 2.6 6.47 2.6 2.9 0 5-.95 6.5-2.84 1.6-1.9 2.3-4.56 2.3-8.02v-24.9h8.4v42.6h-8.3v-.02z"></path><path data-v-2e3a203a="" id="path58_fill" d="M540 140.1v-4.2c-1.47 1.45-3.2 2.67-5.2 3.64-2 .98-4.17 1.47-6.5 1.47-1.73 0-3.47-.2-5.23-.7-1.76-.5-3.35-1.3-4.75-2.5s-2.56-2.6-3.45-4.4c-.9-1.8-1.34-4-1.34-6.6 0-2.4.43-4.4 1.3-6.1.86-1.7 2.05-3.1 3.57-4.3 1.5-1.1 3.3-2 5.36-2.5 2.06-.5 4.3-.8 6.74-.8 3.9 0 7.06.5 9.5 1.6v-3.2c0-2.3-.7-4.1-2.07-5.3-1.38-1.2-3.37-1.8-5.97-1.8-2.22 0-4.2.2-5.97.7-1.8.5-3.5 1.1-5.2 2.1l-3.3-6.3c2-1.2 4.2-2.2 6.5-2.8 2.3-.6 5-.9 8-.9 4.7 0 8.6 1.2 11.5 3.5 2.9 2.4 4.4 6 4.4 10.8v29.3h-8zm0-18.18c-1.14-.6-2.48-1.05-4.02-1.38-1.55-.32-3.45-.5-5.73-.5-2.7 0-4.84.58-6.4 1.72-1.58 1.13-2.36 2.68-2.36 4.63 0 2.1.6 3.8 2 5.1 1.3 1.3 3.4 1.9 6.1 1.9 2.3 0 4.3-.6 6.1-1.7 1.8-1.2 3.2-2.4 4.2-3.8v-6.1z"></path><path data-v-2e3a203a="" id="path59_fill" d="M581.73 106.33c-.92-.5-1.87-.86-2.84-1.14-1-.3-2.2-.4-3.6-.4-2.7 0-4.7.9-6.2 2.7-1.5 1.8-2.2 4.5-2.2 8.2V140h-8.4V97.5h8.3v4.06c1-1.4 2.3-2.6 4-3.53 1.7-.94 3.6-1.4 5.7-1.4 1.7 0 3.1.14 4.2.43 1.1.3 2.1.75 2.9 1.34l-2.2 7.96z"></path><path data-v-2e3a203a="" id="path60_fill" d="M614.3 140.06V136c-1.58 1.42-3.26 2.62-5.05 3.57-1.78.96-3.8 1.44-6.08 1.44-2.28 0-4.4-.4-6.42-1.3-2-.8-3.75-2.2-5.24-4-1.4-1.8-2.6-4.2-3.4-7.1-.8-2.9-1.2-6.4-1.2-10.4 0-3.6.5-6.8 1.4-9.5 1-2.7 2.2-4.9 3.7-6.7 1.6-1.8 3.4-3.1 5.4-4 2.1-.8 4.2-1.3 6.4-1.3s4.2.5 6.1 1.5c1.9 1 3.5 2.1 4.7 3.5V85.3L623 81v59.14h-8.34zm.07-30.1c-.5-.65-1.1-1.3-1.8-1.94-.7-.65-1.48-1.24-2.34-1.78-.87-.54-1.8-.98-2.8-1.33-1-.3-2.02-.5-3.05-.5-3.03 0-5.33 1.1-6.9 3.4-1.57 2.3-2.35 5.6-2.35 10.2 0 5.4.82 9.3 2.47 11.7 1.65 2.5 4.02 3.7 7.1 3.7 2 0 3.85-.5 5.53-1.6 1.68-1.1 3.05-2.4 4.14-3.8v-18z"></path><path data-v-2e3a203a="" id="path61_fill" d="M695.24 122.63c0 5.8-1.7 10.17-5.08 13.1-3.38 2.92-8.2 4.38-14.4 4.38h-22.58V83.3h23.38c4.98 0 8.94 1.26 11.9 3.77 2.94 2.52 4.42 6.18 4.42 11 0 2.9-.7 5.27-2.07 7.08-1.3 1.8-3.1 3.23-5.1 4.26 1.2.3 2.3.8 3.4 1.5 1.2.7 2.2 1.6 3.1 2.7.9 1.1 1.7 2.4 2.3 3.9.6 1.5.9 3.3.9 5.2zm-10.9-24.14c0-2.1-.58-3.9-1.77-5.3-1.2-1.5-3.22-2.2-6.1-2.2h-15.25v14.6h15.26c1.4 0 2.6-.2 3.6-.6 1-.4 1.83-1 2.45-1.6.62-.7 1.08-1.5 1.38-2.3.3-.9.5-1.8.5-2.7zm2.37 24.4c0-3-.8-5.3-2.6-6.9-1.7-1.7-4.2-2.6-7.4-2.6h-15.4v18.8h15.2c3.8 0 6.5-.9 8-2.6 1.6-1.8 2.3-4 2.3-6.8z"></path><path data-v-2e3a203a="" id="path62_fill" d="M740.2 118.6c0 3.5-.48 6.67-1.45 9.46-.97 2.78-2.32 5.14-4.04 7.06-1.7 1.92-3.7 3.38-6 4.38s-4.8 1.5-7.6 1.5c-2.7 0-5.1-.52-7.4-1.57-2.2-1.06-4.2-2.57-5.9-4.5-1.6-1.96-2.9-4.3-3.9-7-.9-2.7-1.4-5.73-1.4-9.1 0-3.45.5-6.57 1.5-9.33s2.3-5.1 4-7.02c1.7-1.92 3.7-3.38 6-4.4 2.3-1 4.8-1.5 7.5-1.5s5.2.54 7.5 1.6c2.3 1.05 4.4 2.52 6.1 4.42 1.7 1.9 3.1 4.2 4 6.94 1 2.73 1.5 5.75 1.5 9.05zm-8.35.24c0-4.4-.96-7.87-2.9-10.44-1.92-2.57-4.6-3.86-8.02-3.86-3.2 0-5.72 1.3-7.54 3.86-1.9 2.57-2.8 5.97-2.8 10.2 0 4.7 1 8.3 2.9 10.76 1.9 2.46 4.5 3.7 7.7 3.7 1.5 0 3-.4 4.3-1.15 1.3-.7 2.4-1.7 3.3-3 .9-1.2 1.6-2.8 2.1-4.5.5-1.7.7-3.6.7-5.5z"></path><path data-v-2e3a203a="" id="path63_fill" d="M773.02 140.1v-4.2c-1.47 1.45-3.2 2.67-5.2 3.64-2 .98-4.17 1.47-6.5 1.47-1.73 0-3.47-.2-5.23-.7-1.8-.5-3.4-1.3-4.8-2.5s-2.6-2.6-3.5-4.4c-.9-1.8-1.4-4-1.4-6.6 0-2.4.4-4.4 1.3-6.1.8-1.7 2-3.1 3.5-4.3 1.5-1.1 3.3-2 5.3-2.5s4.3-.8 6.7-.8c3.9 0 7 .5 9.5 1.6v-3.2c0-2.3-.7-4.1-2.1-5.3-1.4-1.2-3.4-1.8-6-1.8-2.2 0-4.2.2-6 .7-1.8.5-3.5 1.1-5.2 2.1l-3.3-6.3c2-1.2 4.2-2.2 6.6-2.8 2.3-.6 5-.9 8-.9 4.7 0 8.6 1.2 11.5 3.5 2.9 2.4 4.4 6 4.4 10.8v29.3h-8zm0-18.18c-1.14-.6-2.48-1.05-4.03-1.38-1.6-.32-3.5-.5-5.8-.5-2.7 0-4.9.58-6.4 1.72-1.6 1.13-2.4 2.68-2.4 4.63 0 2.1.6 3.8 2 5.1 1.3 1.3 3.4 1.9 6.1 1.9 2.2 0 4.3-.6 6.1-1.7 1.8-1.2 3.2-2.4 4.1-3.8v-6.1z"></path><path data-v-2e3a203a="" id="path64_fill" d="M814.75 106.33c-.92-.5-1.87-.86-2.84-1.14-.9-.3-2.1-.4-3.5-.4-2.6 0-4.7.9-6.2 2.7-1.4 1.8-2.2 4.5-2.2 8.2V140h-8.3V97.5h8.3v4.06c1-1.4 2.3-2.6 4-3.53 1.7-.94 3.6-1.4 5.8-1.4 1.8 0 3.2.14 4.3.43 1.1.3 2.1.75 2.9 1.34l-2.2 7.96z"></path><path data-v-2e3a203a="" id="path65_fill" d="M847.3 140.06V136c-1.56 1.42-3.24 2.62-5.03 3.57-1.78.96-3.8 1.44-6.1 1.44-2.26 0-4.4-.4-6.4-1.3-2-.8-3.75-2.2-5.24-4-1.5-1.8-2.65-4.2-3.5-7.1-.83-2.9-1.25-6.4-1.25-10.4 0-3.6.46-6.8 1.38-9.5.92-2.7 2.16-4.9 3.7-6.7 1.54-1.8 3.33-3.1 5.36-4 2.03-.8 4.15-1.3 6.37-1.3 2.1 0 4.1.5 6 1.5 1.9 1 3.4 2.1 4.6 3.5V85.3l8.3-4.3v59.14h-8.4zm.1-30.1c-.5-.65-1.1-1.3-1.8-1.94-.7-.65-1.5-1.24-2.35-1.78-.87-.54-1.8-.98-2.8-1.33-1-.3-2.02-.5-3.05-.5-3.03 0-5.33 1.1-6.9 3.4-1.57 2.3-2.35 5.6-2.35 10.2 0 5.4.82 9.3 2.47 11.7 1.65 2.5 4.02 3.7 7.1 3.7 2 0 3.85-.5 5.53-1.6 1.67-1.1 3.05-2.4 4.14-3.8v-18z"></path><path data-v-2e3a203a="" id="path66_fill" d="M48.54 0v53.42h7.3v22.33h-9.2v-13.9H9.1v13.9H0V53.42h5.38c5.4-8.34 7.56-20.5 7.56-35.17V0h35.6zM21.97 22.24c0 11.8-1.48 22.5-6.08 31.18h23.2v-45H21.9v13.82z"></path><path data-v-2e3a203a="" id="path67_fill" d="M70.6 42.48c.17 7.38 3.3 12.33 11.54 12.33 4.44 0 7.2-1.5 10.34-4.6l5.56 5.3c-4.95 4.9-9.2 6.9-16.24 6.9-13.2 0-19.97-7.8-19.97-22.7 0-13.8 7.12-22.3 18.67-22.3 11.37 0 18.58 8.3 18.58 21.2v4H70.6zm9.9-17.8c-7.13 0-9.73 5.46-9.9 11.54h19.8c-.44-6-2.7-11.55-9.9-11.55z"></path><path data-v-2e3a203a="" id="path68_fill" d="M135.55 61.85v-36.3H118v36.3h-8.85V17.8h35.26v44.05h-8.8z"></path><path data-v-2e3a203a="" id="path69_fill" d="M180.44 61.85v-4c-3.65 3.65-6.5 4.43-11.72 4.43-9.8 0-15.28-4.77-15.28-13.3 0-7.98 5.73-12.76 15.1-12.76h11.82v-3.2c0-5.74-2.96-8.18-9.9-8.18-2.52 0-4.34.35-5.9 1.13-1.3.6-2.27 1.48-3.57 3.13l-5.9-5.47c2.4-2.6 3.5-3.65 5.7-4.6 2.5-1.22 5.6-1.74 9.8-1.74 12.2 0 18.4 5.1 18.4 15.1v29.4h-8.7zm-.08-19.37h-10.42c-5.2 0-7.9 2.08-7.9 6.25 0 4.26 2.7 6.26 8.68 6.26 6.86 0 9.64-2.7 9.64-9.1v-3.5z"></path><path data-v-2e3a203a="" id="path70_fill" d="M232.1 58.38c-2.6 2.6-6.42 4-10.93 4-5.04 0-8-1.4-11.3-5.05v22.33h-8.85V17.8h8.68v4.62c3.56-3.66 6.08-5.13 11.38-5.13 7.8 0 13.2 3.7 14.93 11.3.7 3.1 1 6.1 1 11.3 0 9.5-1.4 14.9-4.8 18.4zM219 25.2c-3.65 0-6.08 1.4-7.47 4.25-1.13 2.35-1.65 5.65-1.65 10.68 0 10.17 2.7 14.34 9.2 14.34 6.52 0 9.12-4.17 9.12-14.68 0-10.6-2.6-14.6-9.2-14.6z"></path><path data-v-2e3a203a="" id="path71_fill" d="M263.2 25.54v36.3h-8.86v-36.3h-13.98V17.8h36.3v7.74H263.2z"></path><path data-v-2e3a203a="" id="path72_fill" d="M305.75 61.85v-4c-3.65 3.65-6.52 4.43-11.73 4.43-9.8 0-15.28-4.77-15.28-13.3 0-7.98 5.73-12.76 15.1-12.76h11.82v-3.2c0-5.74-2.96-8.18-9.9-8.18-2.52 0-4.35.35-5.9 1.13-1.3.6-2.27 1.48-3.57 3.13l-5.9-5.47c2.4-2.6 3.5-3.65 5.7-4.6 2.5-1.22 5.6-1.74 9.8-1.74 12.2 0 18.4 5.1 18.4 15.1v29.4h-8.7zm-.1-19.37h-10.4c-5.22 0-7.9 2.08-7.9 6.25 0 4.26 2.68 6.26 8.67 6.26 6.86 0 9.64-2.7 9.64-9.1v-3.5z"></path><path data-v-2e3a203a="" id="path73_fill" d="M361.23 61.85V33.62l-10.16 20.15h-5.55l-10.34-20.15v28.23h-8.86V17.8h8.77l13.2 26.24 13.1-26.23h8.7v44.1h-8.9z"></path><path data-v-2e3a203a="" id="path74_fill" d="M389.02 42.48c.17 7.38 3.3 12.33 11.55 12.33 4.43 0 7.2-1.5 10.33-4.6l5.56 5.3c-4.95 4.9-9.2 6.9-16.24 6.9-13.2 0-19.97-7.8-19.97-22.7 0-13.8 7.12-22.3 18.67-22.3 11.37 0 18.58 8.3 18.58 21.2v4h-28.48zm9.9-17.8c-7.13 0-9.73 5.46-9.9 11.54h19.8c-.44-6-2.7-11.55-9.9-11.55z"></path><path data-v-2e3a203a="" id="path75_fill" d="M453.97 61.85V43.1h-17.54v18.75h-8.86V17.8h8.86v17.56h17.54V17.8h8.86v44.05h-8.86z"></path><path data-v-2e3a203a="" id="path76_fill" d="M491.9 25.54v36.3h-8.84v-36.3h-13.98V17.8h36.3v7.74H491.9z"></path><path data-v-2e3a203a="" id="path77_fill" d="M557.13 61.85v-36.3H539.6v36.3h-8.87V17.8H566v44.05h-8.87z"></path><path data-v-2e3a203a="" id="path78_fill" d="M607.75 57.16c-3.3 3.4-7.9 5.2-13.2 5.2-5.3 0-9.8-1.8-13.1-5.2-3.75-3.9-5.22-8.7-5.22-17.37 0-8.6 1.47-13.4 5.2-17.3 3.3-3.4 7.83-5.2 13.12-5.2 5.3 0 9.9 1.8 13.2 5.2 3.65 3.8 5.13 8.7 5.13 17.1 0 8.8-1.4 13.6-5.13 17.5zm-6.42-29.1c-1.57-1.74-3.82-2.87-6.78-2.87-2.95 0-5.2 1.1-6.77 2.9-2.17 2.7-2.7 6.7-2.7 12 0 5.8.88 9.3 2.87 11.5 1.56 1.8 3.82 2.7 6.6 2.7 2.96 0 5.3-1.2 6.86-3 2.1-2.5 2.7-6.5 2.7-11.6 0-5.5-.5-9.4-2.7-11.9z"></path><path data-v-2e3a203a="" id="path79_fill" d="M647.6 61.85v-36.3h-12.75V38.3c0 18.68-5.48 23.55-14.07 23.55h-4.17v-7.82h1.4c3.9 0 8.4-.87 8.4-17.9v-18.3h30.2v44.04h-8.8z"></path><path data-v-2e3a203a="" id="path80_fill" d="M696.58 61.85V31.53l-18.84 30.32h-8.86V17.8h8.86v29.9l18.84-29.9h8.86v44.05h-8.86z"></path><path data-v-2e3a203a="" id="path81_fill" d="M750.77 73.14v-11.3h-33V17.82h8.86v36.32h17.54v-36.3h8.86v36.3h6.25v19.02h-8.5z"></path><path data-v-2e3a203a="" id="path82_fill" d="M794.7 61.85V31.53l-18.84 30.32H767V17.8h8.86v29.9l18.85-29.9h8.9v44.05h-8.8z"></path><path data-v-2e3a203a="" id="path83_fill" d="M843.6 61.85V31.53l-18.85 30.32h-8.86V17.8h8.8v29.9l18.8-29.9h8.8v44.05h-8.9z"></path><path data-v-2e3a203a="" id="path84_fill" d="M29.26 147.05v-30.32l-18.84 30.32H1.56V103h8.86v29.9L29.26 103h8.86v44.05h-8.86z"></path><path data-v-2e3a203a="" id="path85_fill" d="M95.95 147.05v-36.32H78.4v36.32h-8.85V103h35.26v44.05H96z"></path><path data-v-2e3a203a="" id="path86_fill" d="M146.58 142.35c-3.3 3.4-7.9 5.22-13.2 5.22-5.3 0-9.82-1.83-13.1-5.22-3.75-3.9-5.22-8.7-5.22-17.37 0-8.6 1.47-13.38 5.2-17.3 3.3-3.37 7.82-5.2 13.1-5.2 5.3 0 9.92 1.83 13.22 5.2 3.64 3.84 5.12 8.7 5.12 17.13 0 8.9-1.4 13.7-5.12 17.6zm-6.43-29.1c-1.56-1.74-3.82-2.87-6.78-2.87-2.95 0-5.2 1.13-6.77 2.96-2.17 2.7-2.7 6.77-2.7 12 0 5.8.88 9.28 2.88 11.54 1.56 1.83 3.8 2.78 6.6 2.78 2.95 0 5.3-1.13 6.86-2.95 2.08-2.5 2.7-6.4 2.7-11.5 0-5.4-.53-9.4-2.8-11.9z"></path><path data-v-2e3a203a="" id="path87_fill" d="M171.24 110.73v36.32h-8.86V103h28.57v7.73h-19.7z"></path><path data-v-2e3a203a="" id="path88_fill" d="M228.37 143.57c-2.6 2.6-6.42 4-10.94 4-5.03 0-8-1.4-11.3-5.04v22.32h-8.84l-.1-61.85h8.7v4.6c3.5-3.64 6-5.12 11.3-5.12 7.8 0 13.2 3.74 14.9 11.38.7 3.13.9 6.08.9 11.3 0 9.55-1.4 14.94-4.9 18.4zm-13.1-33.2c-3.66 0-6.1 1.4-7.48 4.27-1.2 2.35-1.7 5.65-1.7 10.7 0 10.15 2.7 14.32 9.2 14.32 6.5 0 9.1-4.17 9.1-14.68 0-10.5-2.6-14.6-9.2-14.6z"></path><path data-v-2e3a203a="" id="path89_fill" d="M267.28 147.04v-4c-3.65 3.66-6.52 4.44-11.73 4.44-9.8 0-15.28-4.78-15.28-13.3 0-7.98 5.73-12.76 15.1-12.76h11.82v-3.22c0-5.73-3-8.16-9.9-8.16-2.6 0-4.4.34-6 1.13-1.3.6-2.3 1.47-3.6 3.12l-5.8-5.5c2.4-2.6 3.5-3.7 5.7-4.6 2.5-1.2 5.6-1.8 9.8-1.8 12.2 0 18.4 5.1 18.4 15.1V147h-8.7zm-.1-19.37h-10.4c-5.22 0-7.92 2.1-7.92 6.26 0 4.25 2.7 6.25 8.7 6.25 6.85 0 9.63-2.6 9.63-9.03v-3.48z"></path><path data-v-2e3a203a="" id="path90_fill" d="M314.25 147.05v-18.77H296.7v18.77h-8.85V103h8.86v17.55h17.6V103h8.9v44.05h-8.8z"></path><path data-v-2e3a203a="" id="path91_fill" d="M364.88 142.35c-3.3 3.4-7.9 5.22-13.2 5.22-5.3 0-9.8-1.83-13.12-5.22-3.73-3.9-5.2-8.7-5.2-17.37 0-8.6 1.47-13.38 5.2-17.3 3.3-3.37 7.82-5.2 13.12-5.2 5.3 0 9.9 1.83 13.2 5.2 3.64 3.84 5.12 8.7 5.12 17.13 0 8.9-1.4 13.7-5.12 17.6zm-6.43-29.1c-1.56-1.74-3.82-2.87-6.77-2.87-2.95 0-5.2 1.13-6.78 2.96-2.17 2.7-2.7 6.77-2.7 12 0 5.8.88 9.28 2.88 11.54 1.56 1.83 3.82 2.78 6.6 2.78 2.95 0 5.3-1.13 6.86-2.95 2.08-2.5 2.7-6.4 2.7-11.5 0-5.4-.53-9.4-2.8-11.9z"></path><path data-v-2e3a203a="" id="path92_fill" d="M403.6 147.05L394.3 132l-9.28 15.05h-10.68l15.1-22.5-14.5-21.55h10.7l8.67 14.34L403 103h10.6l-14.5 21.55 15.1 22.5h-10.6z"></path><path data-v-2e3a203a="" id="path93_fill" d="M452.5 143.57c-2.6 2.6-6.43 4-10.95 4-5.04 0-8-1.4-11.3-5.04v22.32h-8.85V103h8.7v4.6c3.55-3.64 6.07-5.12 11.36-5.12 7.82 0 13.2 3.74 14.94 11.38.7 3.13.95 6.08.95 11.3 0 9.55-1.4 14.94-4.86 18.4zm-13.12-33.2c-3.65 0-6.08 1.4-7.47 4.27-1.1 2.35-1.6 5.65-1.6 10.7 0 10.15 2.7 14.32 9.2 14.32 6.5 0 9.1-4.17 9.1-14.68 0-10.5-2.6-14.6-9.2-14.6z"></path><path data-v-2e3a203a="" id="path94_fill" d="M491.4 147.04v-4c-3.66 3.66-6.52 4.44-11.73 4.44-9.8 0-15.28-4.78-15.28-13.3 0-7.98 5.7-12.76 15.1-12.76h11.8v-3.22c0-5.73-3-8.16-9.9-8.16-2.5 0-4.4.34-5.9 1.13-1.3.6-2.3 1.47-3.6 3.12l-5.8-5.5c2.4-2.6 3.5-3.7 5.7-4.6 2.5-1.2 5.6-1.8 9.8-1.8 12.2 0 18.4 5.1 18.4 15.1V147h-8.7zm-.1-19.37h-10.4c-5.23 0-7.92 2.1-7.92 6.26 0 4.25 2.7 6.25 8.7 6.25 6.85 0 9.63-2.6 9.63-9.03v-3.48z"></path><path data-v-2e3a203a="" id="path95_fill" d="M538.37 147.05v-18.77h-17.54v18.77h-8.86V103h8.86v17.55h17.54V103h8.86v44.05h-8.86z"></path><path data-v-2e3a203a="" id="path96_fill" d="M579.97 147.04h-20.4V103h8.85v16.6h11.55c8.5 0 14.32 5.55 14.32 13.72 0 8.16-5.9 13.72-14.4 13.72zm-1.48-20.15h-10.1v12.9h10c4.4 0 7-2.5 7-6.5s-2.6-6.5-7.1-6.5zm21.8-23.9h8.8v44h-8.9v-44z"></path></defs></svg>